<svg width="21" height="21" viewBox="0 0 21 21" fill="none" xmlns="http://www.w3.org/2000/svg">
<g clip-path="url(#clip0_1023_1534)">
<path d="M9.33785 0.861081C7.25002 1.21159 5.50509 2.97176 5.1622 5.06721C5.08981 5.53201 5.08981 6.35495 5.1622 6.81976C5.50509 8.93425 7.25764 10.6868 9.37214 11.0297C9.83694 11.1021 10.6599 11.1021 11.1247 11.0297C13.2392 10.6868 14.9917 8.93425 15.3346 6.81976C15.407 6.35495 15.407 5.53201 15.3346 5.06721C14.9917 2.95271 13.2392 1.20016 11.1247 0.857271C10.6789 0.784883 9.77599 0.788692 9.33785 0.861081ZM10.6866 1.99643C11.4485 2.05739 12.3058 2.446 12.942 3.0251C13.4525 3.48991 13.9135 4.25951 14.104 4.95291C14.1802 5.23103 14.1917 5.36819 14.1917 5.94348C14.1917 6.7207 14.1307 7.01406 13.845 7.61603C13.4411 8.46944 12.7934 9.12094 11.9438 9.52859C10.1951 10.363 8.13392 9.81434 6.99095 8.21037C6.76236 7.89415 6.50328 7.33409 6.3928 6.93405C6.3166 6.65212 6.30517 6.52259 6.30517 5.94348C6.30517 5.17007 6.36613 4.87671 6.64425 4.28237C6.86903 3.80994 7.08239 3.50515 7.44433 3.1394C8.11868 2.46886 8.98353 2.0612 9.8979 1.985C10.0808 1.96976 10.2713 1.96214 10.3246 1.96595C10.3779 1.97357 10.5418 1.985 10.6866 1.99643Z" fill="#640164"/>
<path d="M8.01926 12.2906C5.82857 12.6373 3.95029 13.887 2.77303 15.7843C2.08725 16.8815 1.67578 18.2912 1.67578 19.518C1.67578 19.9866 1.71388 20.0933 1.92723 20.2343C2.03391 20.3028 2.27012 20.3066 10.248 20.3066C18.226 20.3066 18.4622 20.3028 18.5689 20.2343C18.7822 20.0933 18.8203 19.9866 18.8203 19.5104C18.8203 17.6397 17.9478 15.6662 16.5077 14.287C15.4524 13.2736 14.2789 12.6602 12.7778 12.3363C12.4235 12.2601 12.2787 12.2563 10.3814 12.2449C8.77743 12.2373 8.28976 12.2449 8.01926 12.2906ZM11.753 13.4107C13.7341 13.5479 15.4752 14.5537 16.5915 16.211C16.8277 16.5653 17.2278 17.3921 17.3497 17.7807C17.4411 18.0779 17.563 18.6417 17.6164 19.0037L17.6392 19.1637H10.248H2.85685L2.87971 19.0037C2.93305 18.6417 3.05496 18.0779 3.1464 17.7807C3.26832 17.3921 3.66836 16.5653 3.90457 16.211C5.00182 14.5842 6.76961 13.5441 8.66694 13.4145C9.26509 13.3726 11.17 13.3688 11.753 13.4107Z" fill="#640164"/>
</g>
<defs>
<clipPath id="clip0_1023_1534">
<rect width="20" height="20" fill="white" transform="translate(0.247559 0.555664)"/>
</clipPath>
</defs>
</svg>
