<svg width="21" height="21" viewBox="0 0 21 21" fill="none" xmlns="http://www.w3.org/2000/svg">
<path d="M2.36621 2.05566C2.2959 2.09863 2.20605 2.18847 2.16309 2.25879C2.08887 2.38379 2.08496 2.46191 2.08496 4.47754C2.08496 6.49316 2.08887 6.57129 2.16309 6.69629C2.28028 6.88379 2.45605 6.97754 2.70996 6.97754C2.96387 6.97754 3.13964 6.88379 3.25684 6.69629C3.33105 6.57129 3.33496 6.49316 3.33496 4.89551V3.22754H5.00684C6.60059 3.22754 6.67871 3.22363 6.80371 3.14941C6.99121 3.03222 7.08496 2.85645 7.08496 2.60254C7.08496 2.34863 6.99121 2.17286 6.80371 2.05566C6.67871 1.98145 6.60059 1.97754 4.58496 1.97754C2.56934 1.97754 2.49121 1.98145 2.36621 2.05566Z" fill="#640164"/>
<path d="M14.8662 2.05566C14.6787 2.17286 14.585 2.34863 14.585 2.60254C14.585 2.85645 14.6787 3.03222 14.8662 3.14941C14.9912 3.22363 15.0694 3.22754 16.667 3.22754H18.335V4.89551C18.335 6.49316 18.3389 6.57129 18.4131 6.69629C18.5303 6.88379 18.706 6.97754 18.96 6.97754C19.2139 6.97754 19.3896 6.88379 19.5068 6.69629C19.581 6.57129 19.585 6.49316 19.585 4.47754C19.585 2.46191 19.581 2.38379 19.5068 2.25879C19.4639 2.18847 19.374 2.09863 19.3037 2.05566C19.1787 1.98145 19.1006 1.97754 17.085 1.97754C15.0694 1.97754 14.9912 1.98145 14.8662 2.05566Z" fill="#640164"/>
<path d="M8.60443 5.18847C8.50288 5.25879 8.40913 5.40332 8.19818 5.81347L7.92475 6.35254H7.30365C6.581 6.35254 6.35834 6.39941 5.8935 6.6377C5.47163 6.85645 5.08881 7.23926 4.87006 7.66113C4.57319 8.23145 4.5849 8.10254 4.5849 11.3525C4.5849 14.6025 4.57319 14.4737 4.87006 15.0439C5.17865 15.6416 5.81538 16.1416 6.46381 16.2939C6.83881 16.3799 14.831 16.3799 15.206 16.2939C15.8544 16.1416 16.4912 15.6416 16.7998 15.0439C17.0966 14.4737 17.0849 14.6025 17.0849 11.3525C17.0849 8.10254 17.0966 8.23145 16.7998 7.66113C16.581 7.23926 16.1982 6.85645 15.7763 6.6377C15.3114 6.39941 15.0888 6.35254 14.3662 6.35254H13.745L13.4716 5.81347C13.2607 5.40332 13.1669 5.25879 13.0654 5.18847L12.9325 5.10254H10.8349H8.73725L8.60443 5.18847ZM14.9443 7.67285C15.3037 7.79395 15.6591 8.15722 15.7646 8.5127C15.8037 8.6377 15.8154 9.30566 15.8154 11.3525C15.8154 13.3994 15.8037 14.0674 15.7646 14.1924C15.6552 14.5596 15.2919 14.9228 14.9248 15.0322C14.6864 15.1064 6.98334 15.1064 6.74506 15.0322C6.38959 14.9267 6.02631 14.5674 5.90522 14.2119C5.84272 14.0166 5.81147 9.11816 5.87397 8.72363C5.96381 8.13379 6.3349 7.73926 6.8935 7.64551C7.23725 7.58691 14.7685 7.61426 14.9443 7.67285Z" fill="#640164"/>
<path d="M10.0537 8.30566C9.18654 8.53223 8.43262 9.1377 8.04199 9.92679C7.7959 10.419 7.70996 10.79 7.70996 11.3525C7.70996 11.919 7.7959 12.2822 8.0459 12.7979C8.20605 13.1182 8.28418 13.2197 8.62403 13.5595C8.95996 13.8955 9.07324 13.9815 9.38963 14.1377C9.89746 14.3916 10.2646 14.4775 10.835 14.4775C11.4053 14.4775 11.7725 14.3916 12.2803 14.1377C12.5967 13.9815 12.706 13.8955 13.042 13.5595C13.378 13.2236 13.4639 13.1143 13.6201 12.7979C13.874 12.29 13.96 11.9229 13.96 11.3525C13.96 10.7861 13.874 10.415 13.628 9.92679C13.2295 9.12595 12.4756 8.52441 11.6006 8.30566C11.1826 8.2002 10.4678 8.2002 10.0537 8.30566ZM11.4014 9.5947C11.8271 9.7432 12.2217 10.0635 12.4444 10.4541C12.749 10.9775 12.749 11.7275 12.4444 12.251C11.8155 13.337 10.3467 13.5166 9.49904 12.6104C9.15528 12.2432 8.99903 11.8525 8.99903 11.3525C8.99903 10.708 9.31546 10.1416 9.86229 9.78612C10.2881 9.51662 10.9365 9.43454 11.4014 9.5947Z" fill="#640164"/>
<path d="M13.6162 8.30566C13.4287 8.42286 13.335 8.59863 13.335 8.85254C13.335 9.10646 13.4287 9.28221 13.6162 9.39937C13.7295 9.46579 13.8155 9.47754 14.2725 9.47754C14.7295 9.47754 14.8155 9.46579 14.9287 9.39937C15.1162 9.28221 15.21 9.10646 15.21 8.85254C15.21 8.59863 15.1162 8.42286 14.9287 8.30566C14.8155 8.23926 14.7295 8.22754 14.2725 8.22754C13.8155 8.22754 13.7295 8.23926 13.6162 8.30566Z" fill="#640164"/>
<path d="M2.36621 14.5557C2.2959 14.5986 2.20605 14.6884 2.16309 14.7588C2.08887 14.8838 2.08496 14.9619 2.08496 16.9775C2.08496 18.9932 2.08887 19.0713 2.16309 19.1963C2.20605 19.2666 2.2959 19.3564 2.36621 19.3994C2.49121 19.4736 2.56934 19.4775 4.58496 19.4775C6.60059 19.4775 6.67871 19.4736 6.80371 19.3994C6.99121 19.2822 7.08496 19.1064 7.08496 18.8525C7.08496 18.5986 6.99121 18.4229 6.80371 18.3057C6.67871 18.2314 6.60059 18.2275 5.00684 18.2275H3.33496V16.5557C3.33496 14.9619 3.33105 14.8838 3.25684 14.7588C3.21387 14.6884 3.12403 14.5986 3.05371 14.5557C2.87793 14.4502 2.54199 14.4502 2.36621 14.5557Z" fill="#640164"/>
<path d="M18.6162 14.5557C18.5459 14.5986 18.456 14.6884 18.4131 14.7588C18.3389 14.8838 18.335 14.9619 18.335 16.5557V18.2275H16.667C15.0694 18.2275 14.9912 18.2314 14.8662 18.3057C14.6787 18.4229 14.585 18.5986 14.585 18.8525C14.585 19.1064 14.6787 19.2822 14.8662 19.3994C14.9912 19.4736 15.0694 19.4775 17.085 19.4775C19.1006 19.4775 19.1787 19.4736 19.3037 19.3994C19.374 19.3564 19.4639 19.2666 19.5068 19.1963C19.581 19.0713 19.585 18.9932 19.585 16.9775C19.585 14.9619 19.581 14.8838 19.5068 14.7588C19.4639 14.6884 19.374 14.5986 19.3037 14.5557C19.128 14.4502 18.792 14.4502 18.6162 14.5557Z" fill="#640164"/>
</svg>
