<svg width="20" height="20" viewBox="0 0 20 20" fill="none" xmlns="http://www.w3.org/2000/svg">
<path d="M8.22363 1.05797C8.26899 1.08435 8.26899 1.08435 8.31527 1.11127C8.36748 1.1412 8.36748 1.1412 8.42074 1.17174C8.45769 1.19353 8.49464 1.21532 8.53271 1.23776C8.57205 1.26048 8.61139 1.2832 8.65193 1.30661C8.77603 1.37843 8.89975 1.45086 9.02343 1.52341C9.09971 1.56789 9.176 1.61234 9.25231 1.65677C9.36701 1.72361 9.48168 1.79052 9.59624 1.85761C9.89891 2.03476 10.2031 2.20918 10.5078 2.38278C10.8875 2.59918 11.266 2.8177 11.6432 3.03839C12.0543 3.27879 12.4669 3.51652 12.8796 3.75423C13.1335 3.90053 13.3873 4.04704 13.6412 4.19353C13.8374 4.30673 14.0336 4.41989 14.2299 4.53289C14.2988 4.57261 14.3678 4.61234 14.4368 4.65207C14.5229 4.70169 14.6091 4.75128 14.6953 4.80084C14.81 4.86696 14.9246 4.93337 15.0391 4.99997C15.076 5.02137 15.1129 5.04276 15.1509 5.0648C15.1857 5.08525 15.2205 5.1057 15.2563 5.12677C15.287 5.14472 15.3177 5.16267 15.3493 5.18116C15.4317 5.23571 15.4869 5.27271 15.5469 5.35153C15.561 5.46795 15.561 5.46795 15.5602 5.61226C15.5602 5.63857 15.5602 5.66487 15.5602 5.69197C15.5601 5.77885 15.5592 5.8657 15.5583 5.95258C15.5581 6.01284 15.5579 6.0731 15.5578 6.13336C15.5574 6.29192 15.5562 6.45047 15.5549 6.60903C15.5537 6.77084 15.5532 6.93265 15.5526 7.09447C15.5513 7.41193 15.5493 7.72939 15.5469 8.04685C15.5855 8.04603 15.6241 8.04521 15.6638 8.04437C15.8083 8.04152 15.9527 8.03974 16.0971 8.03826C16.1594 8.03748 16.2217 8.03642 16.284 8.03506C16.9798 8.02026 16.9798 8.02026 17.2665 8.27268C17.284 8.29483 17.3014 8.31699 17.3193 8.33982C17.3374 8.36197 17.3554 8.38413 17.374 8.40695C17.456 8.52613 17.5 8.60316 17.5 8.74997C17.5366 8.74874 17.5732 8.74752 17.6109 8.74625C17.7489 8.74222 17.8869 8.7393 18.025 8.7371C18.0843 8.73593 18.1436 8.73434 18.2029 8.73229C18.6357 8.71772 18.9861 8.75382 19.3326 9.04781C19.5792 9.31045 19.6721 9.61966 19.6683 9.97254C19.6686 10.0248 19.6686 10.0248 19.669 10.0781C19.6696 10.1939 19.6691 10.3096 19.6686 10.4254C19.6689 10.5088 19.6691 10.5921 19.6695 10.6755C19.6702 10.9013 19.6699 11.1271 19.6694 11.353C19.669 11.5896 19.6694 11.8262 19.6696 12.0628C19.6699 12.4602 19.6695 12.8575 19.6688 13.2548C19.6679 13.7138 19.6682 14.1728 19.6691 14.6318C19.6698 15.0262 19.6699 15.4207 19.6695 15.8152C19.6692 16.0506 19.6692 16.2861 19.6697 16.5215C19.6702 16.7429 19.6699 16.9642 19.669 17.1856C19.6688 17.2667 19.6688 17.3478 19.6692 17.4289C19.6696 17.5399 19.669 17.6508 19.6683 17.7618C19.6688 17.8096 19.6688 17.8096 19.6693 17.8584C19.665 18.1791 19.5433 18.4518 19.3274 18.6886C19.0999 18.8892 18.851 18.9889 18.5504 18.9901C18.4755 18.9905 18.4755 18.9905 18.3991 18.9909C18.3436 18.9911 18.2882 18.9912 18.2327 18.9913C18.1744 18.9915 18.116 18.9918 18.0577 18.992C17.866 18.9929 17.6743 18.9933 17.4826 18.9937C17.4165 18.9938 17.3505 18.994 17.2844 18.9941C16.974 18.9949 16.6636 18.9954 16.3532 18.9958C15.9952 18.9961 15.6373 18.9972 15.2793 18.9988C15.0025 18.9999 14.7256 19.0005 14.4487 19.0006C14.2834 19.0007 14.1182 19.0011 13.9529 19.0021C13.7973 19.003 13.6417 19.0031 13.486 19.0027C13.4291 19.0027 13.3722 19.003 13.3153 19.0035C12.8632 19.0075 12.5515 18.9406 12.2159 18.6303C12.0441 18.4376 11.9499 18.2001 11.9451 17.9431C11.9443 17.9064 11.9435 17.8696 11.9427 17.8318C11.9421 17.7922 11.9414 17.7527 11.9408 17.7119C11.9399 17.6713 11.9391 17.6307 11.9383 17.5889C11.9357 17.4592 11.9334 17.3294 11.9311 17.1997C11.9295 17.1118 11.9278 17.0238 11.926 16.9359C11.9218 16.7203 11.9179 16.5047 11.9141 16.289C11.2523 16.6665 10.5915 17.0454 9.93192 17.4265C9.80091 17.5022 9.66982 17.5777 9.53872 17.6532C9.49491 17.6784 9.4511 17.7037 9.40597 17.7297C9.3196 17.7794 9.23318 17.8291 9.14672 17.8786C8.95909 17.9865 8.77247 18.0952 8.58871 18.2095C8.55865 18.228 8.52859 18.2465 8.49762 18.2655C8.44366 18.2989 8.39003 18.3329 8.33685 18.3675C8.16384 18.474 8.01138 18.5227 7.81249 18.4765C7.65505 18.4095 7.51024 18.3246 7.36327 18.2373C7.32049 18.2126 7.27772 18.1879 7.23364 18.1624C7.10069 18.0855 6.9683 18.0076 6.83593 17.9297C6.75708 17.8838 6.67819 17.8379 6.59927 17.7922C6.44475 17.7024 6.29045 17.6123 6.13631 17.5219C5.89 17.3776 5.64285 17.2348 5.3955 17.0923C5.35331 17.0679 5.31111 17.0436 5.26764 17.0186C5.1821 16.9693 5.09656 16.92 5.01102 16.8707C4.79895 16.7485 4.58698 16.6262 4.37499 16.5039C4.29036 16.455 4.20572 16.4062 4.12109 16.3574C3.86718 16.2109 3.86718 16.2109 3.61327 16.0644C3.57137 16.0403 3.52947 16.0161 3.4863 15.9912C3.40173 15.9424 3.31716 15.8936 3.23259 15.8448C3.02006 15.7222 2.80751 15.5996 2.5949 15.4771C0.455375 14.2444 0.455375 14.2444 0.351555 14.1406C0.347035 14.028 0.345085 13.9164 0.344755 13.8038C0.344501 13.7681 0.344247 13.7323 0.343985 13.6954C0.343184 13.5747 0.342671 13.4539 0.342161 13.3331C0.341661 13.2469 0.341148 13.1606 0.340623 13.0744C0.336092 12.2869 0.333873 11.4993 0.332155 10.7117C0.331922 10.6063 0.331684 10.5008 0.331442 10.3954C0.331352 10.3561 0.331352 10.3561 0.331261 10.316C0.330257 9.8917 0.328035 9.46737 0.32533 9.04304C0.322577 8.60754 0.32103 8.17205 0.320564 7.73655C0.320268 7.49196 0.319436 7.2474 0.31732 7.00282C0.315353 6.7727 0.314857 6.54262 0.315494 6.3125C0.315471 6.228 0.314911 6.1435 0.313778 6.059C0.312311 5.94366 0.31277 5.82847 0.313713 5.71312C0.312829 5.67963 0.311946 5.64615 0.311035 5.61164C0.313993 5.46951 0.319329 5.38558 0.419445 5.2798C0.498635 5.2195 0.578095 5.16722 0.664055 5.11716C0.703577 5.09251 0.743098 5.06787 0.783817 5.04248C0.821539 5.02125 0.85926 5.00002 0.898125 4.97815C0.941234 4.95373 0.984343 4.9293 1.02876 4.90414C1.05126 4.89152 1.07375 4.87891 1.09693 4.86591C1.16896 4.82552 1.24084 4.78488 1.31269 4.74417C1.38744 4.70181 1.46221 4.65946 1.53702 4.61719C1.78237 4.47854 2.02653 4.33783 2.2705 4.19675C2.35442 4.14828 2.43835 4.0998 2.52227 4.05133C2.56367 4.02741 2.60508 4.00348 2.64774 3.97883C2.85885 3.85688 3.07005 3.73507 3.28124 3.61325C3.36588 3.56443 3.45051 3.5156 3.53515 3.46677C4.04296 3.1738 4.04296 3.1738 4.16993 3.10055C4.25451 3.05175 4.33908 3.00296 4.42365 2.95416C4.63617 2.83153 4.84872 2.70896 5.06133 2.58649C5.43121 2.37337 5.80098 2.1601 6.16942 1.94449C6.28389 1.87758 6.39854 1.81096 6.51321 1.74436C6.66774 1.6545 6.82158 1.5636 6.97494 1.47178C7.07415 1.41257 7.17371 1.35397 7.27334 1.29547C7.32144 1.26704 7.36938 1.23835 7.41716 1.20938C7.48389 1.16898 7.55121 1.12958 7.61855 1.09021C7.65698 1.0673 7.6954 1.0444 7.73499 1.02079C7.91321 0.953125 8.0513 0.983942 8.22363 1.05797ZM7.67562 1.75672C7.63188 1.7819 7.58814 1.80708 7.54308 1.83302C7.49535 1.86083 7.44762 1.88865 7.39989 1.91648C7.35045 1.94506 7.30099 1.97361 7.25152 2.00214C7.14959 2.06099 7.04774 2.11997 6.94596 2.17908C6.8089 2.25867 6.67162 2.33788 6.53426 2.41696C6.32505 2.53743 6.11597 2.65814 5.90694 2.77892C5.69582 2.90088 5.48462 3.02268 5.27343 3.1445C5.18879 3.19333 5.10416 3.24216 5.01952 3.29099C3.49609 4.16989 3.49609 4.16989 3.369 4.24321C3.28481 4.29178 3.20062 4.34036 3.11643 4.38893C2.92095 4.50171 2.72547 4.61448 2.52996 4.7272C2.46158 4.76662 2.3932 4.80605 2.32482 4.84548C2.23968 4.89457 2.15454 4.94365 2.06939 4.99272C1.99163 5.03757 1.91392 5.0825 1.83627 5.12754C1.75281 5.17564 1.66903 5.22319 1.58504 5.27036C1.54205 5.29473 1.49906 5.3191 1.45477 5.34421C1.39592 5.37722 1.39592 5.37722 1.33588 5.41089C1.29337 5.43952 1.29337 5.43952 1.24999 5.46872C1.24999 5.4945 1.24999 5.52028 1.24999 5.54685C1.2723 5.55937 1.29461 5.57189 1.31759 5.58478C1.7486 5.82693 2.17831 6.07103 2.60497 6.32077C2.64281 6.34278 2.68064 6.36479 2.71962 6.38747C2.91534 6.50137 3.1105 6.61604 3.30461 6.73265C3.40403 6.79218 3.50384 6.85106 3.60372 6.90982C3.65206 6.93846 3.70022 6.96739 3.7482 6.99661C3.81519 7.03736 3.88283 7.07704 3.95049 7.11667C3.98912 7.13978 4.02775 7.1629 4.06755 7.18671C4.21466 7.23896 4.27394 7.21262 4.41405 7.14841C4.4858 7.11151 4.5565 7.07253 4.62615 7.03183C4.66638 7.00847 4.70661 6.98511 4.74805 6.96104C4.79091 6.93586 4.83377 6.91068 4.87792 6.88474C4.92339 6.85824 4.96887 6.83176 5.01435 6.80531C5.13072 6.73756 5.24694 6.66956 5.36311 6.60147C5.53981 6.49794 5.7167 6.39475 5.89355 6.29148C5.93146 6.26931 5.96937 6.24714 6.00843 6.2243C6.33237 6.03515 6.65801 5.84902 6.98392 5.66328C7.34034 5.46011 7.69536 5.25465 8.04948 5.04749C8.33289 4.88176 8.61693 4.71716 8.90136 4.55319C8.94319 4.52907 8.98503 4.50494 9.02813 4.48009C9.22462 4.36682 9.42117 4.25367 9.61786 4.14073C10.2834 3.75958 10.2834 3.75958 10.9375 3.35935C10.7557 3.19935 10.5501 3.09019 10.3393 2.9736C10.016 2.79287 9.69452 2.60932 9.37499 2.42185C9.05268 2.23333 8.72993 2.04562 8.40575 1.86032C8.36751 1.83822 8.32927 1.81611 8.28986 1.79334C8.25454 1.77325 8.21922 1.75315 8.18282 1.73245C8.15176 1.71466 8.12071 1.69687 8.08871 1.67853C7.91962 1.59924 7.8257 1.66973 7.67562 1.75672ZM11.2666 3.8284C11.2225 3.85378 11.1783 3.87916 11.1329 3.90532C11.0848 3.93328 11.0368 3.96125 10.9888 3.98923C10.9391 4.01791 10.8895 4.04657 10.8398 4.0752C10.6899 4.16176 10.5402 4.24879 10.3906 4.33591C10.3487 4.36027 10.3068 4.38464 10.2637 4.40974C10.0713 4.52172 9.87904 4.63397 9.68688 4.74637C9.31412 4.9642 8.93981 5.17935 8.5657 5.39485C8.35364 5.51703 8.14166 5.63937 7.92968 5.76169C7.84504 5.81052 7.76041 5.85935 7.67577 5.90817C7.63388 5.93234 7.59198 5.95651 7.54882 5.98142C7.35839 6.09128 7.35839 6.09128 7.16796 6.20114C7.12603 6.22534 7.0841 6.24953 7.04089 6.27445C6.95664 6.32306 6.87239 6.37167 6.78813 6.42027C6.59334 6.53264 6.39855 6.64503 6.2038 6.75747C5.2864 7.28712 5.2864 7.28712 4.84374 7.53903C4.84374 7.56482 4.84374 7.5906 4.84374 7.61716C4.87197 7.63323 4.90019 7.6493 4.92927 7.66585C5.4244 7.9479 5.91918 8.23046 6.41113 8.51804C6.44838 8.53973 6.48563 8.56141 6.52401 8.58376C6.71041 8.69235 6.89637 8.8016 7.08144 8.91244C7.17453 8.96806 7.26788 9.02323 7.36128 9.07833C7.42778 9.11779 7.49392 9.15784 7.56005 9.1979C7.60041 9.22164 7.64076 9.24538 7.68234 9.26984C7.73567 9.30175 7.73567 9.30175 7.79009 9.3343C7.91267 9.3839 7.96169 9.37826 8.08593 9.33591C8.16153 9.29862 8.23565 9.25829 8.30856 9.21598C8.35204 9.19092 8.39553 9.16587 8.44033 9.14005C8.4874 9.11257 8.53447 9.08508 8.58154 9.05759C8.63062 9.02919 8.67972 9.00081 8.72884 8.97245C8.82993 8.91405 8.93092 8.85549 9.03184 8.7968C9.21021 8.69309 9.38903 8.59018 9.56783 8.48723C9.73518 8.39084 9.90239 8.29421 10.0696 8.19758C10.2807 8.07563 10.4919 7.95382 10.7031 7.832C10.7878 7.78318 10.8724 7.73435 10.957 7.68552C11.4648 7.39255 11.4648 7.39255 11.5918 7.3193C11.6764 7.2705 11.761 7.22171 11.8455 7.17291C12.058 7.05028 12.2706 6.92771 12.4832 6.80524C13.013 6.5 13.5423 6.19405 14.0695 5.88437C14.1496 5.83777 14.2302 5.79189 14.3109 5.74643C14.3539 5.72206 14.3969 5.69769 14.4412 5.67258C14.4808 5.6504 14.5204 5.62822 14.5612 5.60536C14.59 5.58605 14.6188 5.56674 14.6484 5.54685C14.6484 5.52107 14.6484 5.49528 14.6484 5.46872C14.6226 5.45384 14.5967 5.43895 14.5701 5.42361C14.4464 5.35241 14.3228 5.28118 14.1992 5.20993C14.1649 5.19013 14.1649 5.19013 14.1298 5.16993C13.8466 5.00661 13.5636 4.84271 13.2814 4.67759C13.0862 4.5634 12.8908 4.44962 12.6953 4.33591C12.6718 4.32224 12.6484 4.30857 12.6242 4.29449C12.4734 4.20668 12.3224 4.11916 12.1712 4.03199C12.1221 4.00365 12.0731 3.97522 12.0242 3.94671C11.956 3.90703 11.8877 3.86771 11.8193 3.8284C11.7801 3.8057 11.7408 3.783 11.7004 3.7596C11.5188 3.67015 11.4312 3.73318 11.2666 3.8284ZM0.89843 6.0156C0.884737 7.02304 0.874408 8.03046 0.868072 9.03797C0.865051 9.50579 0.860934 9.97356 0.854227 10.4413C0.848383 10.8491 0.844606 11.2568 0.8433 11.6646C0.842536 11.8806 0.840746 12.0964 0.836479 12.3123C0.832492 12.5156 0.831276 12.7188 0.832156 12.9222C0.831995 12.9967 0.830834 13.0712 0.828583 13.1457C0.80529 13.5229 0.80529 13.5229 0.954882 13.8525C1.09366 13.9642 1.2458 14.0387 1.40927 14.1075C1.52798 14.1598 1.63648 14.2261 1.74789 14.2924C1.83498 14.342 1.92211 14.3915 2.00927 14.4409C2.10528 14.4955 2.20125 14.5502 2.2972 14.6049C2.33294 14.6253 2.33294 14.6253 2.36939 14.6461C2.5961 14.7756 2.82159 14.9071 3.04687 15.039C3.38261 15.2356 3.71965 15.4298 4.05761 15.6225C4.53906 15.8971 5.01942 16.1735 5.4993 16.4508C5.752 16.5968 6.0048 16.7426 6.25763 16.8883C6.45724 17.0034 6.65678 17.1187 6.85611 17.2342C6.95099 17.2893 7.04591 17.3442 7.14083 17.3992C7.20837 17.4383 7.27587 17.4775 7.34336 17.5168C7.38382 17.5402 7.42428 17.5636 7.46597 17.5877C7.51979 17.6189 7.51979 17.6189 7.57469 17.6508C7.64648 17.6984 7.64648 17.6984 7.6953 17.6953C7.70717 16.6872 7.71612 15.6791 7.72162 14.6709C7.72423 14.2028 7.7278 13.7347 7.73361 13.2666C7.73868 12.8586 7.74195 12.4506 7.74308 12.0426C7.74375 11.8265 7.7453 11.6105 7.749 11.3945C7.75245 11.1911 7.75351 10.9878 7.75274 10.7843C7.75288 10.7097 7.75389 10.6351 7.75584 10.5606C7.76858 10.2352 7.76858 10.2352 7.6953 9.92185C7.54185 9.76593 7.38984 9.69344 7.18749 9.60935C7.1159 9.56951 7.04473 9.52888 6.97433 9.48697C6.90464 9.44793 6.83491 9.40897 6.76513 9.37009C6.45256 9.19468 6.14174 9.01665 5.83251 8.83542C5.49116 8.63543 5.14843 8.438 4.80468 8.24216C4.46507 8.04866 4.12636 7.85373 3.78905 7.65622C3.4078 7.43302 3.02472 7.21312 2.64087 6.99441C2.40763 6.86148 2.1747 6.72807 1.94244 6.59345C1.91938 6.5801 1.89633 6.56674 1.87258 6.55299C1.76295 6.48949 1.65338 6.42589 1.5439 6.36213C1.48512 6.32806 1.48512 6.32806 1.42516 6.29331C1.37424 6.26368 1.37424 6.26368 1.32228 6.23345C1.23156 6.18326 1.1405 6.13603 1.04772 6.08987C1.01972 6.07593 0.991722 6.06198 0.962875 6.04761C0.941608 6.03705 0.920341 6.02648 0.89843 6.0156ZM14.7508 6.13309C14.7064 6.15847 14.662 6.18385 14.6163 6.21C14.5676 6.23797 14.5189 6.26594 14.4702 6.29392C14.4202 6.32258 14.3702 6.35124 14.3202 6.37989C13.9721 6.57948 13.6252 6.78099 13.2788 6.98357C12.7824 7.27389 12.2838 7.56043 11.7855 7.84745C11.2944 8.13034 10.8039 8.41407 10.3146 8.70005C10.0223 8.87074 9.72931 9.04005 9.43603 9.20896C9.14093 9.37899 8.84601 9.54931 8.55224 9.72165C8.5248 9.7377 8.49736 9.75375 8.46909 9.77029C8.34873 9.83668 8.34873 9.83668 8.24218 9.92185C8.23836 10.0221 8.2371 10.1214 8.23748 10.2217C8.23745 10.2534 8.23742 10.2852 8.23738 10.3179C8.23732 10.4253 8.23753 10.5326 8.23775 10.6399C8.23776 10.7164 8.23775 10.793 8.23773 10.8696C8.23772 11.0783 8.23795 11.2869 8.23822 11.4955C8.23846 11.7133 8.23849 11.931 8.23853 12.1488C8.23865 12.5615 8.23898 12.9741 8.23937 13.3868C8.2398 13.8565 8.24002 14.3262 8.24021 14.7959C8.24062 15.7623 8.24131 16.7288 8.24218 17.6953C8.31709 17.6581 8.39198 17.6209 8.46685 17.5836C8.5294 17.5525 8.5294 17.5525 8.59322 17.5207C8.7354 17.4485 8.87236 17.3701 9.00878 17.2876C9.06577 17.2536 9.12279 17.2197 9.17983 17.1858C9.21071 17.1674 9.24158 17.1491 9.27339 17.1302C9.46994 17.0143 9.66793 16.9009 9.86572 16.7871C10.4715 16.4381 11.0772 16.0888 11.6772 15.73C11.7013 15.7156 11.7253 15.7013 11.7501 15.6865C11.8577 15.6248 11.8577 15.6248 11.9531 15.5468C11.9569 15.4713 11.9578 15.3956 11.9577 15.3199C11.9578 15.2706 11.9578 15.2212 11.9579 15.1704C11.9577 15.1152 11.9576 15.06 11.9574 15.0048C11.9574 14.9471 11.9574 14.8893 11.9574 14.8316C11.9575 14.7069 11.9574 14.5822 11.9573 14.4574C11.9572 14.2599 11.9575 14.0624 11.958 13.8649C11.9581 13.8315 11.9582 13.7982 11.9583 13.7639C11.9584 13.6957 11.9586 13.6275 11.9587 13.5593C11.9598 13.0993 11.9606 12.6393 11.96 12.1793C11.9595 11.8693 11.9599 11.5593 11.9612 11.2492C11.9619 11.0853 11.9621 10.9213 11.9614 10.7573C11.9606 10.6027 11.961 10.4481 11.9622 10.2934C11.9625 10.237 11.9623 10.1805 11.9617 10.1241C11.9581 9.74769 12.0105 9.45548 12.2266 9.1406C12.4269 8.94235 12.6708 8.7997 12.9546 8.77834C13.004 8.77981 13.0534 8.78127 13.1044 8.78278C13.1594 8.78324 13.2144 8.78362 13.2694 8.78392C13.3549 8.78497 13.4403 8.78661 13.5258 8.78969C13.7094 8.79568 13.883 8.79564 14.0625 8.74997C14.1564 8.65751 14.2023 8.57786 14.2532 8.45686C14.3313 8.28248 14.4459 8.22111 14.6094 8.12497C14.7383 8.09919 14.8672 8.07341 15 8.04685C15 7.37653 15 6.70622 15 6.0156C14.9149 6.0156 14.8209 6.09295 14.7508 6.13309ZM14.7266 8.71091C14.6221 8.86761 14.6164 8.99546 14.6484 9.17966C14.7531 9.31928 14.8307 9.38277 15 9.41403C15.0534 9.4178 15.1069 9.41981 15.1604 9.42033C15.1916 9.4207 15.2228 9.42108 15.2549 9.42147C15.2882 9.42163 15.3216 9.4218 15.356 9.42197C15.3907 9.42219 15.4253 9.42241 15.4611 9.42264C15.5344 9.42301 15.6077 9.42327 15.681 9.42342C15.7926 9.4238 15.9042 9.42501 16.0158 9.42624C16.0872 9.4265 16.1586 9.4267 16.23 9.42685C16.2631 9.42733 16.2963 9.42782 16.3304 9.42831C16.5411 9.42753 16.6892 9.39904 16.875 9.29685C16.9795 9.14015 16.9851 9.0123 16.9531 8.8281C16.8484 8.68847 16.7708 8.62499 16.6016 8.59372C16.5482 8.58996 16.4946 8.58795 16.4411 8.58743C16.41 8.58705 16.3788 8.58668 16.3467 8.58629C16.3133 8.58612 16.2799 8.58596 16.2456 8.58579C16.2109 8.58556 16.1762 8.58534 16.1405 8.58511C16.0672 8.58474 15.9938 8.58449 15.9205 8.58434C15.8089 8.58396 15.6973 8.58275 15.5857 8.58151C15.5143 8.58126 15.4429 8.58105 15.3715 8.5809C15.3384 8.58042 15.3053 8.57994 15.2711 8.57944C15.0604 8.58023 14.9123 8.60871 14.7266 8.71091ZM12.6587 9.52146C12.5112 9.75389 12.4885 9.98197 12.4898 10.2519C12.4897 10.2841 12.4895 10.3163 12.4894 10.3495C12.489 10.4569 12.4891 10.5643 12.4893 10.6716C12.4891 10.7489 12.4889 10.8261 12.4887 10.9033C12.4881 11.1126 12.4881 11.322 12.4882 11.5313C12.4883 11.7063 12.4881 11.8812 12.4879 12.0561C12.4874 12.4689 12.4874 12.8816 12.4877 13.2944C12.4879 13.7199 12.4874 14.1453 12.4866 14.5708C12.4859 14.9364 12.4857 15.3021 12.4858 15.6677C12.4859 15.8859 12.4858 16.1041 12.4852 16.3223C12.4847 16.5276 12.4848 16.7329 12.4853 16.9381C12.4854 17.0133 12.4853 17.0885 12.485 17.1637C12.4846 17.2666 12.4849 17.3695 12.4854 17.4725C12.4851 17.502 12.4848 17.5315 12.4845 17.5618C12.4872 17.8262 12.5427 18.0668 12.7051 18.2788C12.973 18.4797 13.2854 18.4488 13.6062 18.4482C13.6588 18.4484 13.7114 18.4486 13.764 18.4488C13.9062 18.4493 14.0484 18.4494 14.1906 18.4493C14.3096 18.4492 14.4286 18.4494 14.5476 18.4496C14.8285 18.45 15.1094 18.45 15.3904 18.4498C15.6795 18.4496 15.9687 18.45 16.2578 18.4509C16.5066 18.4516 16.7555 18.4518 17.0043 18.4517C17.1527 18.4516 17.3011 18.4517 17.4494 18.4522C17.589 18.4527 17.7286 18.4527 17.8682 18.4522C17.9434 18.452 18.0186 18.4525 18.0938 18.4529C18.517 18.4512 18.517 18.4512 18.8898 18.2705C19.0957 18.0468 19.1132 17.7723 19.1117 17.4824C19.1119 17.4502 19.112 17.418 19.1122 17.3848C19.1126 17.2774 19.1124 17.1701 19.1123 17.0627C19.1125 16.9855 19.1127 16.9083 19.1129 16.831C19.1134 16.6217 19.1134 16.4123 19.1133 16.203C19.1133 16.0281 19.1135 15.8531 19.1137 15.6782C19.1141 15.2654 19.1141 14.8527 19.1139 14.4399C19.1136 14.0144 19.1141 13.589 19.115 13.1635C19.1157 12.7979 19.1159 12.4323 19.1158 12.0666C19.1157 11.8484 19.1158 11.6302 19.1163 11.412C19.1168 11.2067 19.1167 11.0014 19.1162 10.7962C19.1161 10.721 19.1163 10.6458 19.1166 10.5706C19.117 10.4677 19.1167 10.3648 19.1162 10.2618C19.1165 10.2324 19.1168 10.2029 19.117 10.1725C19.1147 9.94371 19.0813 9.69182 18.9346 9.50784C18.658 9.25681 18.3204 9.2868 17.9712 9.29196C17.9032 9.29249 17.9032 9.29249 17.8338 9.29303C17.7225 9.29395 17.6113 9.29523 17.5 9.29685C17.4903 9.31788 17.4805 9.33891 17.4705 9.36057C17.3376 9.6388 17.3376 9.6388 17.2095 9.74118C17.1769 9.76822 17.1769 9.76822 17.1437 9.79581C16.9867 9.89827 16.8466 9.93169 16.6606 9.9332C16.6186 9.93369 16.5766 9.93419 16.5333 9.93471C16.4883 9.93479 16.4433 9.93488 16.3969 9.93497C16.3269 9.93536 16.3269 9.93536 16.2555 9.93576C16.1568 9.93615 16.0582 9.93634 15.9595 9.93632C15.8091 9.93649 15.6586 9.93791 15.5082 9.93939C15.4122 9.93962 15.3162 9.93978 15.2202 9.93985C15.153 9.94069 15.153 9.94069 15.0845 9.94155C14.7827 9.93984 14.5701 9.90027 14.335 9.69739C14.3176 9.67559 14.3002 9.65378 14.2822 9.63132C14.2642 9.60962 14.2462 9.58791 14.2276 9.56555C14.1717 9.47994 14.1384 9.39199 14.1016 9.29685C13.9461 9.29341 13.7907 9.29135 13.6352 9.28952C13.5916 9.28854 13.548 9.28756 13.503 9.28655C13.202 9.2839 12.8765 9.28461 12.6587 9.52146Z" fill="black"/>
<path d="M13.4397 15.8442C13.4872 15.8436 13.4872 15.8436 13.5357 15.8431C13.5868 15.8434 13.5868 15.8434 13.6389 15.8438C13.6916 15.8436 13.6916 15.8436 13.7453 15.8435C13.8195 15.8434 13.8937 15.8436 13.9679 15.8441C14.0816 15.8447 14.1952 15.8441 14.3089 15.8433C14.381 15.8434 14.4531 15.8436 14.5251 15.8438C14.5592 15.8436 14.5933 15.8433 14.6284 15.8431C14.66 15.8434 14.6917 15.8438 14.7244 15.8442C14.7522 15.8443 14.78 15.8444 14.8087 15.8445C14.9058 15.864 14.9404 15.8986 15 15.9765C15.02 16.0991 15.02 16.0991 15.0269 16.2378C15.0307 16.3069 15.0307 16.3069 15.0346 16.3774C15.0368 16.4303 15.0368 16.4303 15.0391 16.4844C15.057 16.4655 15.0749 16.4467 15.0934 16.4273C15.1293 16.3903 15.1293 16.3903 15.166 16.3525C15.1896 16.3281 15.2131 16.3036 15.2374 16.2784C15.3127 16.2108 15.3747 16.1694 15.4688 16.1328C15.5873 16.1401 15.6728 16.1547 15.7764 16.2134C15.8485 16.3377 15.846 16.464 15.8203 16.6015C15.7589 16.7068 15.6781 16.7858 15.5907 16.87C15.567 16.8937 15.5434 16.9174 15.5191 16.9419C15.4691 16.9917 15.4187 17.0412 15.368 17.0903C15.2908 17.1653 15.215 17.2417 15.1394 17.3183C15.0905 17.3667 15.0416 17.415 14.9925 17.4632C14.97 17.486 14.9475 17.5087 14.9243 17.5321C14.7747 17.6749 14.6683 17.7315 14.4531 17.7344C14.3608 17.6811 14.3608 17.6811 14.2847 17.605C14.259 17.5801 14.2334 17.5553 14.207 17.5297C14.1851 17.507 14.1632 17.4843 14.1406 17.4609C14.1148 17.4351 14.0891 17.4094 14.0625 17.3828C14.0448 17.4271 14.0271 17.4714 14.0088 17.5171C13.9453 17.6562 13.9453 17.6562 13.8672 17.6953C13.7698 17.7012 13.6741 17.7043 13.5767 17.7051C13.55 17.7059 13.5234 17.7067 13.496 17.7075C13.2996 17.709 13.2996 17.709 13.2151 17.6458C13.1531 17.5635 13.1492 17.5219 13.1489 17.4196C13.1485 17.388 13.1482 17.3563 13.1478 17.3237C13.148 17.2896 13.1483 17.2555 13.1485 17.2204C13.1484 17.1853 13.1483 17.1502 13.1482 17.1141C13.1481 17.0399 13.1483 16.9657 13.1488 16.8914C13.1494 16.7778 13.1488 16.6641 13.148 16.5504C13.1481 16.4784 13.1483 16.4063 13.1485 16.3342C13.1483 16.3002 13.148 16.2661 13.1478 16.231C13.1482 16.1993 13.1485 16.1676 13.1489 16.135C13.149 16.1072 13.1491 16.0793 13.1492 16.0507C13.1821 15.8868 13.2841 15.8447 13.4397 15.8442ZM13.7109 16.4062C13.7109 16.6512 13.7109 16.8961 13.7109 17.1484C13.7625 17.1355 13.8141 17.1226 13.8672 17.1094C13.8656 17.0731 13.864 17.0369 13.8623 16.9995C13.8672 16.875 13.8672 16.875 13.9453 16.7578C14.1097 16.7323 14.203 16.7258 14.3478 16.8104C14.4248 16.8684 14.4985 16.928 14.5703 16.9922C14.616 16.9475 14.6616 16.9027 14.707 16.8579C14.7324 16.833 14.7578 16.808 14.7839 16.7824C14.8482 16.7285 14.8482 16.7285 14.8438 16.6797C14.7809 16.6773 14.7809 16.6773 14.7168 16.6748C14.6685 16.6635 14.6201 16.6522 14.5703 16.6406C14.549 16.6015 14.5276 16.5625 14.5056 16.5222C14.4297 16.4016 14.4297 16.4016 14.3358 16.387C14.2403 16.3832 14.1482 16.3858 14.0527 16.3916C13.9399 16.3964 13.8272 16.4013 13.7109 16.4062Z" fill="black"/>
<path d="M13.4397 10.8442C13.4872 10.8436 13.4872 10.8436 13.5357 10.8431C13.5868 10.8434 13.5868 10.8434 13.6389 10.8438C13.6916 10.8436 13.6916 10.8436 13.7453 10.8435C13.8195 10.8434 13.8937 10.8436 13.9679 10.8441C14.0816 10.8447 14.1952 10.8441 14.3089 10.8433C14.381 10.8434 14.4531 10.8436 14.5251 10.8438C14.5592 10.8436 14.5933 10.8433 14.6284 10.8431C14.66 10.8434 14.6917 10.8438 14.7244 10.8442C14.7522 10.8443 14.78 10.8444 14.8087 10.8445C14.9056 10.8639 14.9402 10.899 15 10.9765C15.02 11.0905 15.02 11.0905 15.0269 11.2182C15.0294 11.2607 15.032 11.3031 15.0346 11.3469C15.0368 11.3956 15.0368 11.3956 15.0391 11.4453C15.0607 11.4232 15.0824 11.4011 15.1047 11.3783C15.133 11.3497 15.1613 11.321 15.1904 11.2915C15.2185 11.2629 15.2466 11.2344 15.2756 11.205C15.3708 11.1146 15.4107 11.0958 15.542 11.0815C15.6641 11.0937 15.6641 11.0937 15.7568 11.1548C15.8485 11.2923 15.8502 11.3606 15.8203 11.5234C15.6325 11.7893 15.3739 12.0148 15.144 12.2436C15.091 12.2969 15.091 12.2969 15.0369 12.3513C15.0031 12.385 14.9693 12.4187 14.9345 12.4534C14.904 12.484 14.8734 12.5145 14.8419 12.546C14.7439 12.6374 14.6994 12.6543 14.5654 12.6758C14.3743 12.6511 14.3028 12.5775 14.1679 12.4464C14.1048 12.3796 14.1048 12.3796 14.0234 12.3437C14.0194 12.38 14.0154 12.4162 14.0112 12.4536C13.9751 12.6211 13.9751 12.6211 13.8672 12.6953C13.7656 12.707 13.6755 12.7117 13.5742 12.7099C13.5478 12.7104 13.5213 12.7109 13.4941 12.7113C13.3011 12.7102 13.3011 12.7102 13.2151 12.6456C13.153 12.5634 13.1492 12.5219 13.1489 12.4196C13.1485 12.388 13.1482 12.3563 13.1478 12.3237C13.148 12.2896 13.1483 12.2555 13.1485 12.2204C13.1484 12.1853 13.1483 12.1502 13.1482 12.1141C13.1481 12.0399 13.1483 11.9657 13.1488 11.8914C13.1494 11.7778 13.1488 11.6641 13.148 11.5504C13.1481 11.4784 13.1483 11.4063 13.1485 11.3342C13.1483 11.3002 13.148 11.2661 13.1478 11.231C13.1482 11.1993 13.1485 11.1676 13.1489 11.135C13.149 11.1072 13.1491 11.0793 13.1492 11.0507C13.1821 10.8868 13.2841 10.8447 13.4397 10.8442ZM13.7109 11.4062C13.7109 11.6512 13.7109 11.8961 13.7109 12.1484C13.7625 12.1484 13.8141 12.1484 13.8672 12.1484C13.8624 12.0759 13.8624 12.0759 13.8574 12.0019C13.8581 11.882 13.8638 11.8415 13.9282 11.7358C14.0234 11.6797 14.0234 11.6797 14.1528 11.6748C14.3403 11.732 14.4296 11.8181 14.5703 11.9531C14.6863 11.8371 14.8023 11.7211 14.9219 11.6015C14.8382 11.5517 14.8382 11.5517 14.7095 11.5698C14.6406 11.5662 14.6406 11.5662 14.5703 11.5625C14.5559 11.5368 14.5415 11.511 14.5267 11.4845C14.4617 11.3994 14.4617 11.3994 14.3744 11.3934C14.274 11.3908 14.1751 11.3927 14.0747 11.3965C13.9547 11.3997 13.8346 11.4029 13.7109 11.4062Z" fill="black"/>
<path d="M13.4397 13.3442C13.4872 13.3436 13.4872 13.3436 13.5357 13.3431C13.5868 13.3434 13.5868 13.3434 13.6389 13.3438C13.6916 13.3436 13.6916 13.3436 13.7453 13.3435C13.8195 13.3434 13.8937 13.3436 13.9679 13.3441C14.0816 13.3447 14.1952 13.3441 14.3089 13.3433C14.381 13.3434 14.4531 13.3436 14.5251 13.3438C14.5592 13.3436 14.5933 13.3433 14.6284 13.3431C14.66 13.3434 14.6917 13.3438 14.7244 13.3442C14.7522 13.3443 14.78 13.3444 14.8087 13.3445C14.9069 13.3642 14.9411 13.3964 15 13.4765C15.0149 13.5507 15.0149 13.5507 15.0152 13.635C15.0155 13.6667 15.0159 13.6984 15.0163 13.731C15.016 13.7651 15.0158 13.7991 15.0156 13.8342C15.0157 13.8693 15.0158 13.9044 15.0159 13.9406C15.016 14.0148 15.0158 14.089 15.0153 14.1632C15.0147 14.2769 15.0153 14.3905 15.016 14.5042C15.0159 14.5763 15.0158 14.6484 15.0156 14.7204C15.0159 14.7715 15.0159 14.7715 15.0163 14.8237C15.0159 14.8553 15.0155 14.887 15.0152 14.9196C15.0151 14.9475 15.015 14.9753 15.0149 15.004C14.9952 15.1022 14.963 15.1364 14.8828 15.1953C14.8087 15.2102 14.8087 15.2102 14.7244 15.2105C14.6768 15.211 14.6768 15.211 14.6284 15.2116C14.5943 15.2113 14.5602 15.2111 14.5251 15.2109C14.4725 15.211 14.4725 15.211 14.4188 15.2112C14.3446 15.2113 14.2704 15.2111 14.1961 15.2106C14.0825 15.2099 13.9688 15.2106 13.8551 15.2113C13.7831 15.2112 13.711 15.2111 13.6389 15.2109C13.5878 15.2112 13.5878 15.2112 13.5357 15.2116C13.4882 15.211 13.4882 15.211 13.4397 15.2105C13.398 15.2103 13.398 15.2103 13.3554 15.2102C13.2572 15.1905 13.223 15.1583 13.1641 15.0781C13.1492 15.004 13.1492 15.004 13.1489 14.9196C13.1485 14.888 13.1482 14.8563 13.1478 14.8237C13.148 14.7896 13.1483 14.7555 13.1485 14.7204C13.1484 14.6853 13.1483 14.6502 13.1482 14.6141C13.1481 14.5399 13.1483 14.4657 13.1488 14.3914C13.1494 14.2778 13.1488 14.1641 13.148 14.0504C13.1481 13.9784 13.1483 13.9063 13.1485 13.8342C13.1483 13.8002 13.148 13.7661 13.1478 13.731C13.1482 13.6993 13.1485 13.6676 13.1489 13.635C13.149 13.6072 13.1491 13.5793 13.1492 13.5507C13.1821 13.3868 13.2841 13.3447 13.4397 13.3442ZM13.7109 13.9062C13.7109 14.1512 13.7109 14.3961 13.7109 14.6484C13.9559 14.6484 14.2008 14.6484 14.4531 14.6484C14.4531 14.4035 14.4531 14.1586 14.4531 13.9062C14.2082 13.9062 13.9633 13.9062 13.7109 13.9062Z" fill="black"/>
<path d="M16.4781 16.5172C16.5184 16.5168 16.5587 16.5164 16.6002 16.516C16.644 16.5159 16.6879 16.5157 16.7331 16.5155C16.7778 16.5153 16.8226 16.5151 16.8687 16.5148C16.9636 16.5145 17.0585 16.5142 17.1534 16.5141C17.2989 16.5137 17.4444 16.5125 17.5899 16.5112C17.6819 16.511 17.7739 16.5108 17.8659 16.5106C17.9096 16.5101 17.9533 16.5097 17.9983 16.5092C18.0389 16.5093 18.0794 16.5094 18.1212 16.5095C18.1569 16.5094 18.1926 16.5092 18.2294 16.5091C18.3378 16.5262 18.3721 16.554 18.4375 16.6406C18.4531 16.7163 18.4531 16.7163 18.4521 16.7969C18.4526 16.8368 18.4526 16.8368 18.4531 16.8775C18.4325 16.9774 18.4004 17.0076 18.3203 17.0703C18.2299 17.0852 18.2299 17.0852 18.1224 17.0855C18.062 17.086 18.062 17.086 18.0003 17.0866C17.9569 17.0864 17.9134 17.0861 17.8687 17.0859C17.824 17.086 17.7794 17.0861 17.7334 17.0862C17.6389 17.0863 17.5445 17.0861 17.4501 17.0856C17.3053 17.085 17.1605 17.0856 17.0157 17.0863C16.924 17.0863 16.8324 17.0861 16.7407 17.0859C16.6755 17.0862 16.6755 17.0862 16.609 17.0866C16.5687 17.0862 16.5285 17.0859 16.487 17.0855C16.4338 17.0853 16.4338 17.0853 16.3795 17.0852C16.2711 17.0674 16.2377 17.0394 16.1719 16.9531C16.1377 16.8604 16.1377 16.8604 16.1328 16.7578C16.231 16.5615 16.2634 16.5188 16.4781 16.5172Z" fill="black"/>
<path d="M16.4781 14.0172C16.5184 14.0168 16.5587 14.0164 16.6002 14.016C16.644 14.0159 16.6879 14.0157 16.7331 14.0155C16.7778 14.0153 16.8226 14.0151 16.8687 14.0148C16.9636 14.0145 17.0585 14.0142 17.1534 14.0141C17.2989 14.0137 17.4444 14.0125 17.5899 14.0112C17.6819 14.011 17.7739 14.0108 17.8659 14.0106C17.9096 14.0101 17.9533 14.0097 17.9983 14.0092C18.0389 14.0093 18.0794 14.0094 18.1212 14.0095C18.1569 14.0094 18.1926 14.0092 18.2294 14.0091C18.3378 14.0262 18.3721 14.054 18.4375 14.1406C18.4531 14.2163 18.4531 14.2163 18.4521 14.2969C18.4526 14.3368 18.4526 14.3368 18.4531 14.3775C18.4325 14.4774 18.4004 14.5076 18.3203 14.5703C18.2299 14.5852 18.2299 14.5852 18.1224 14.5855C18.062 14.586 18.062 14.586 18.0003 14.5866C17.9569 14.5864 17.9134 14.5861 17.8687 14.5859C17.824 14.586 17.7794 14.5861 17.7334 14.5862C17.6389 14.5863 17.5445 14.5861 17.4501 14.5856C17.3053 14.585 17.1605 14.5856 17.0157 14.5863C16.924 14.5863 16.8324 14.5861 16.7407 14.5859C16.6755 14.5862 16.6755 14.5862 16.609 14.5866C16.5687 14.5862 16.5285 14.5859 16.487 14.5855C16.4338 14.5853 16.4338 14.5853 16.3795 14.5852C16.2711 14.5674 16.2377 14.5394 16.1719 14.4531C16.1377 14.3604 16.1377 14.3604 16.1328 14.2578C16.231 14.0615 16.2634 14.0188 16.4781 14.0172Z" fill="black"/>
<path d="M16.4781 11.5172C16.5184 11.5168 16.5587 11.5164 16.6002 11.516C16.644 11.5159 16.6879 11.5157 16.7331 11.5155C16.7778 11.5153 16.8226 11.5151 16.8687 11.5148C16.9636 11.5145 17.0585 11.5142 17.1534 11.5141C17.2989 11.5137 17.4444 11.5125 17.5899 11.5112C17.6819 11.511 17.7739 11.5108 17.8659 11.5106C17.9096 11.5101 17.9533 11.5097 17.9983 11.5092C18.0389 11.5093 18.0794 11.5094 18.1212 11.5095C18.1569 11.5094 18.1926 11.5092 18.2294 11.5091C18.3378 11.5262 18.3721 11.554 18.4375 11.6406C18.4531 11.7163 18.4531 11.7163 18.4521 11.7969C18.4526 11.8368 18.4526 11.8368 18.4531 11.8775C18.4325 11.9774 18.4004 12.0076 18.3203 12.0703C18.2299 12.0852 18.2299 12.0852 18.1224 12.0855C18.062 12.086 18.062 12.086 18.0003 12.0866C17.9569 12.0864 17.9134 12.0861 17.8687 12.0859C17.824 12.086 17.7794 12.0861 17.7334 12.0862C17.6389 12.0863 17.5445 12.0861 17.4501 12.0856C17.3053 12.085 17.1605 12.0856 17.0157 12.0863C16.924 12.0863 16.8324 12.0861 16.7407 12.0859C16.6755 12.0862 16.6755 12.0862 16.609 12.0866C16.5687 12.0862 16.5285 12.0859 16.487 12.0855C16.4338 12.0853 16.4338 12.0853 16.3795 12.0852C16.2711 12.0674 16.2377 12.0394 16.1719 11.9531C16.1377 11.8604 16.1377 11.8604 16.1328 11.7578C16.231 11.5615 16.2634 11.5188 16.4781 11.5172Z" fill="black"/>
</svg>
