<svg width="22" height="22" viewBox="0 0 22 22" fill="none" xmlns="http://www.w3.org/2000/svg">
<path d="M3.56942 0.989805C3.61887 0.989655 3.66831 0.989506 3.71926 0.989352C3.8557 0.988952 3.99214 0.989035 4.12858 0.989203C4.27605 0.989299 4.42352 0.988946 4.57098 0.988654C4.85957 0.988157 5.14816 0.988086 5.43676 0.988178C5.67141 0.988247 5.90606 0.988179 6.14071 0.988013C6.17414 0.987989 6.20758 0.987966 6.24203 0.987942C6.30996 0.987895 6.37789 0.987847 6.44583 0.9878C7.08246 0.987375 7.71908 0.987459 8.35571 0.987698C8.93764 0.9879 9.51957 0.98746 10.1015 0.986717C10.6996 0.98596 11.2977 0.985638 11.8957 0.985785C12.2313 0.985859 12.5668 0.985763 12.9024 0.98521C13.1881 0.984744 13.4737 0.98469 13.7594 0.985163C13.905 0.985392 14.0506 0.985437 14.1962 0.984967C14.3544 0.984463 14.5125 0.984875 14.6707 0.98537C14.7163 0.985082 14.7619 0.984794 14.8089 0.984497C15.4864 0.988951 16.1271 1.2656 16.6033 1.74782C17.0267 2.22105 17.2632 2.7942 17.2602 3.42704C17.2603 3.46117 17.2605 3.49531 17.2606 3.53047C17.261 3.6439 17.2609 3.75733 17.2607 3.87076C17.2609 3.95247 17.2611 4.03418 17.2613 4.11589C17.2619 4.3372 17.2619 4.55849 17.2618 4.7798C17.2617 4.96482 17.2619 5.14983 17.2621 5.33485C17.2626 5.77148 17.2626 6.2081 17.2623 6.64473C17.2621 7.09457 17.2626 7.5444 17.2634 7.99424C17.2641 8.38102 17.2643 8.76781 17.2642 9.1546C17.2641 9.38536 17.2642 9.61611 17.2648 9.84687C17.2653 10.0639 17.2652 10.281 17.2647 10.4981C17.2646 10.5775 17.2647 10.6569 17.265 10.7364C17.268 11.521 17.1157 12.2134 16.5578 12.7984C16.1134 13.2373 15.5114 13.5091 14.8866 13.5087C14.8507 13.5083 14.8149 13.5079 14.778 13.5074C14.7391 13.5073 14.7001 13.5072 14.6599 13.507C14.5301 13.5065 14.4004 13.5054 14.2706 13.5044C14.1772 13.5039 14.0838 13.5035 13.9904 13.5031C13.7896 13.5022 13.5888 13.5012 13.388 13.5C13.0702 13.4981 12.7523 13.4974 12.4345 13.497C12.3802 13.4969 12.3259 13.4968 12.2717 13.4967C12.1618 13.4965 12.052 13.4964 11.9422 13.4962C11.6603 13.4958 11.3784 13.4953 11.0965 13.4947C11.0682 13.4946 11.0399 13.4946 11.0108 13.4945C10.5531 13.4935 10.0955 13.4909 9.63781 13.4878C9.16685 13.4846 8.69591 13.4834 8.22494 13.4839C7.96092 13.4842 7.69697 13.4835 7.43297 13.4805C7.18445 13.4778 6.93604 13.4774 6.68752 13.4789C6.59667 13.479 6.50583 13.4782 6.415 13.4765C5.96414 13.4686 5.61686 13.469 5.27143 13.7854C5.20597 13.8506 5.1429 13.9171 5.08096 13.9856C4.99566 14.0764 4.90162 14.1506 4.80371 14.2275C4.64737 14.3542 4.49313 14.483 4.33985 14.6133C4.15041 14.7743 3.95892 14.9324 3.76612 15.0893C3.64383 15.1899 3.52298 15.292 3.40235 15.3945C3.21304 15.5554 3.02179 15.7135 2.82892 15.8701C2.72673 15.9544 2.62617 16.0401 2.52587 16.1266C2.42185 16.2158 2.3165 16.3033 2.21094 16.3906C2.17997 16.4168 2.14901 16.443 2.1171 16.47C1.91957 16.6214 1.75205 16.6609 1.50309 16.6482C1.32438 16.6113 1.199 16.5257 1.07813 16.3906C0.998417 16.2615 0.990191 16.1613 0.990063 16.0107C0.989835 15.9648 0.989607 15.9189 0.989372 15.8717C0.98952 15.8212 0.989668 15.7707 0.98982 15.7187C0.989702 15.6646 0.98955 15.6104 0.989367 15.5563C0.988964 15.4074 0.989051 15.2585 0.989218 15.1096C0.989314 14.9491 0.988962 14.7885 0.988669 14.628C0.988171 14.3133 0.988102 13.9987 0.988193 13.684C0.988263 13.4282 0.988194 13.1724 0.988028 12.9165C0.987993 12.8619 0.987993 12.8619 0.987957 12.8063C0.98791 12.7323 0.987863 12.6584 0.987815 12.5845C0.98739 11.8907 0.987475 11.197 0.987713 10.5032C0.987915 9.86884 0.987476 9.23449 0.986733 8.60013C0.985975 7.94874 0.985653 7.29734 0.9858 6.64594C0.985874 6.28025 0.985778 5.91457 0.985225 5.54889C0.984759 5.23742 0.984705 4.92596 0.985178 4.61449C0.985408 4.45566 0.985452 4.29683 0.984983 4.13799C0.984558 3.99237 0.984681 3.84676 0.985227 3.70114C0.985379 3.62396 0.984958 3.54677 0.984512 3.46958C0.988515 2.80685 1.23286 2.18325 1.69222 1.70159C2.21599 1.18428 2.85263 0.987494 3.56942 0.989805ZM2.5625 2.67968C2.26664 3.07553 2.24403 3.47816 2.24531 3.95551C2.24527 4.00121 2.24524 4.0469 2.2452 4.09398C2.24515 4.2203 2.24527 4.34661 2.24547 4.47293C2.24564 4.60933 2.24558 4.74574 2.24555 4.88215C2.24553 5.11832 2.24565 5.35448 2.24587 5.59065C2.24619 5.9321 2.24629 6.27356 2.24634 6.61501C2.24643 7.16903 2.24669 7.72305 2.24706 8.27707C2.24742 8.81517 2.24769 9.35327 2.24786 9.89137C2.24787 9.92455 2.24788 9.95773 2.24789 9.99192C2.24794 10.1584 2.24799 10.3249 2.24804 10.4913C2.24844 11.8718 2.24913 13.2523 2.25 14.6328C2.29914 14.5963 2.34822 14.5598 2.39728 14.5232C2.43829 14.4927 2.43829 14.4927 2.48012 14.4616C2.60766 14.3638 2.72774 14.2582 2.84815 14.1518C3.05275 13.9728 3.25974 13.7978 3.47101 13.6266C3.59258 13.5272 3.71239 13.4259 3.83203 13.3242C4.15362 13.0513 4.47995 12.7847 4.81104 12.5234C4.8348 12.5046 4.85857 12.4858 4.88305 12.4664C5.11496 12.2842 5.11496 12.2842 5.29922 12.2839C5.33261 12.2837 5.366 12.2835 5.4004 12.2834C5.45574 12.2834 5.45574 12.2834 5.5122 12.2834C5.55124 12.2833 5.59027 12.2831 5.63048 12.283C5.76212 12.2826 5.89377 12.2824 6.02541 12.2823C6.11946 12.282 6.21351 12.2818 6.30756 12.2815C6.51056 12.2809 6.71356 12.2804 6.91657 12.2801C7.2105 12.2795 7.50443 12.2787 7.79837 12.2778C8.27579 12.2763 8.75321 12.2749 9.23063 12.2737C9.25922 12.2736 9.28781 12.2736 9.31727 12.2735C9.72248 12.2724 10.1277 12.2715 10.5329 12.2706C10.5614 12.2706 10.5899 12.2705 10.6193 12.2704C10.6477 12.2704 10.6762 12.2703 10.7055 12.2702C11.1807 12.2692 11.656 12.2678 12.1312 12.2663C12.4242 12.2653 12.7172 12.2646 13.0102 12.2642C13.2351 12.2639 13.4599 12.2631 13.6848 12.2623C13.7769 12.262 13.8689 12.2618 13.961 12.2618C14.0869 12.2618 14.2128 12.2612 14.3387 12.2606C14.3749 12.2607 14.4111 12.2608 14.4484 12.2609C14.9247 12.2572 15.3387 12.1613 15.6875 11.8203C15.948 11.4718 16.0062 11.1143 16.0052 10.685C16.0053 10.6544 16.0054 10.6238 16.0055 10.5923C16.0057 10.4904 16.0057 10.3886 16.0057 10.2867C16.0058 10.2134 16.0059 10.1401 16.0061 10.0668C16.0064 9.86807 16.0065 9.66936 16.0065 9.47066C16.0066 9.3464 16.0066 9.22215 16.0068 9.09789C16.0071 8.66408 16.0073 8.23028 16.0072 7.79647C16.0072 7.39261 16.0076 6.98875 16.0082 6.58489C16.0088 6.23772 16.009 5.89054 16.0089 5.54337C16.0089 5.33621 16.009 5.12906 16.0095 4.9219C16.0098 4.72699 16.0098 4.53209 16.0096 4.33718C16.0095 4.26585 16.0096 4.19452 16.0098 4.12319C16.0117 3.53638 16.0037 3.00575 15.5703 2.56249C15.174 2.26627 14.7706 2.24409 14.2927 2.24476C14.2238 2.24463 14.2238 2.24463 14.1536 2.2445C14.0267 2.24429 13.8998 2.24426 13.7729 2.24431C13.6358 2.24432 13.4988 2.2441 13.3617 2.24392C13.0934 2.24359 12.8251 2.24348 12.5567 2.24346C12.3386 2.24344 12.1204 2.24336 11.9022 2.24324C11.2833 2.2429 10.6643 2.24272 10.0454 2.24274C10.012 2.24275 9.97867 2.24275 9.94431 2.24275C9.91093 2.24275 9.87754 2.24275 9.84314 2.24275C9.3021 2.24277 8.76107 2.2424 8.22003 2.24185C7.6641 2.24128 7.10818 2.24101 6.55226 2.24105C6.2403 2.24106 5.92835 2.24095 5.6164 2.24053C5.3508 2.24018 5.0852 2.24009 4.81959 2.24036C4.68418 2.24049 4.54877 2.24049 4.41336 2.24015C4.26632 2.23985 4.11928 2.24003 3.97223 2.24033C3.92978 2.24013 3.88733 2.23993 3.8436 2.23972C3.35051 2.24195 2.92527 2.32497 2.5625 2.67968Z" fill="black"/>
<path d="M18.5854 5.98291C18.6149 5.98354 18.6444 5.98417 18.6748 5.98482C19.3051 6.00693 19.9115 6.30051 20.3533 6.74784C20.8317 7.28258 21.0122 7.88323 21.0104 8.58705C21.0106 8.63839 21.0108 8.68972 21.011 8.74262C21.0115 8.88434 21.0114 9.02605 21.0114 9.16777C21.0113 9.32091 21.0118 9.47404 21.0121 9.62718C21.0128 9.92683 21.013 10.2265 21.013 10.5261C21.0131 10.7696 21.0132 11.0132 21.0135 11.2567C21.0142 11.9473 21.0145 12.6379 21.0145 13.3285C21.0145 13.3657 21.0145 13.4029 21.0145 13.4412C21.0145 13.4785 21.0145 13.5157 21.0145 13.5541C21.0144 14.1582 21.0152 14.7624 21.0163 15.3666C21.0174 15.9871 21.0179 16.6077 21.0179 17.2282C21.0178 17.5765 21.0181 17.9248 21.0189 18.2732C21.0196 18.5695 21.0198 18.8659 21.0193 19.1623C21.019 19.3135 21.019 19.4647 21.0197 19.616C21.0204 19.7798 21.0199 19.9437 21.0193 20.1075C21.0197 20.1554 21.0201 20.2033 21.0205 20.2526C21.0185 20.5004 21.0132 20.6568 20.8437 20.8438C20.6663 21.0123 20.5029 21.0202 20.2693 21.0284C19.9595 20.96 19.7067 20.7048 19.4692 20.5044C19.411 20.4558 19.3527 20.4073 19.2944 20.3588C19.2658 20.335 19.2371 20.3113 19.2077 20.2868C19.0897 20.1897 18.9697 20.0953 18.8491 20.0015C18.6526 19.8484 18.4586 19.6927 18.2656 19.5352C17.8753 19.2162 17.8753 19.2162 17.4758 18.9089C17.4062 18.8516 17.4062 18.8516 17.3377 18.7741C17.0892 18.521 16.857 18.5042 16.5206 18.4991C16.3993 18.499 16.2782 18.5004 16.1569 18.5019C16.0695 18.5018 15.982 18.5015 15.8945 18.5011C15.7066 18.5006 15.5187 18.5011 15.3308 18.5024C15.0335 18.5044 14.7362 18.5042 14.4389 18.5037C14.0219 18.5032 13.6049 18.5038 13.1879 18.5052C12.7596 18.5067 12.3314 18.5079 11.9031 18.5084C11.8767 18.5084 11.8504 18.5084 11.8232 18.5085C11.3826 18.509 10.942 18.509 10.5014 18.5088C10.2061 18.5088 9.91078 18.5094 9.61546 18.5107C9.43149 18.5114 9.24753 18.5116 9.06356 18.5117C8.97851 18.5119 8.89346 18.5122 8.80842 18.5128C7.98194 18.5183 7.98194 18.5183 7.64062 18.3828C7.61186 18.3716 7.58309 18.3603 7.55346 18.3488C6.85135 18.0619 6.43422 17.5768 6.11886 16.8945C5.99611 16.5533 5.98544 16.2234 5.98552 15.8653C5.98535 15.7776 5.98392 15.69 5.98245 15.6023C5.98222 15.5459 5.98206 15.4895 5.98199 15.4331C5.98167 15.3826 5.98135 15.3321 5.98102 15.28C6.00923 15.0728 6.10509 14.9548 6.2539 14.8135C6.45566 14.7198 6.64063 14.7206 6.85937 14.75C7.05341 14.8401 7.14995 14.9534 7.25 15.1406C7.27237 15.2805 7.27365 15.4191 7.27441 15.5605C7.28114 16.0502 7.32099 16.5298 7.67968 16.8984C8.04802 17.1703 8.42294 17.2175 8.87028 17.2145C8.90682 17.2144 8.94335 17.2143 8.98099 17.2142C9.10303 17.2139 9.22506 17.2133 9.3471 17.2128C9.43477 17.2125 9.52243 17.2123 9.6101 17.212C9.79875 17.2115 9.98741 17.211 10.1761 17.2104C10.4747 17.2095 10.7734 17.2093 11.072 17.2092C11.1477 17.2092 11.1477 17.2092 11.2249 17.2092C11.4066 17.2092 11.5882 17.2092 11.7699 17.2092C11.9563 17.2092 12.1427 17.2092 12.3291 17.2091C12.369 17.2091 12.369 17.2091 12.4096 17.2091C12.8397 17.2089 13.2697 17.2075 13.6998 17.2056C14.1422 17.2038 14.5845 17.2034 15.0269 17.2043C15.275 17.2048 15.523 17.2046 15.771 17.2027C16.0046 17.2009 16.238 17.2009 16.4716 17.2024C16.5569 17.2026 16.6423 17.2021 16.7277 17.2009C17.285 17.1937 17.617 17.2592 18.0312 17.6406C18.0908 17.6885 18.1505 17.7362 18.2107 17.7833C18.2617 17.8259 18.3126 17.8687 18.3633 17.9116C18.4196 17.9586 18.4759 18.0056 18.5323 18.0525C18.5597 18.0752 18.5871 18.098 18.6153 18.1215C18.9061 18.3614 19.2064 18.5898 19.5052 18.8196C19.5288 18.8377 19.5523 18.8558 19.5766 18.8745C19.6344 18.9189 19.6922 18.9634 19.75 19.0078C19.7468 17.6758 19.7432 16.3438 19.7391 15.0119C19.7386 14.8545 19.7381 14.6972 19.7376 14.5399C19.7375 14.4929 19.7375 14.4929 19.7373 14.4449C19.7358 13.9381 19.7345 13.4313 19.7333 12.9245C19.7321 12.4042 19.7306 11.884 19.7288 11.3637C19.7277 11.0428 19.7268 10.7219 19.7263 10.401C19.7259 10.1808 19.7252 9.96064 19.7242 9.74045C19.7237 9.6135 19.7234 9.48656 19.7233 9.35961C19.7231 9.2217 19.7225 9.0838 19.7218 8.94589C19.7219 8.88627 19.7219 8.88627 19.722 8.82545C19.7185 8.37438 19.6464 7.93675 19.3203 7.60156C19.0697 7.41654 18.8295 7.33011 18.5195 7.29395C18.2592 7.25545 18.1204 7.18755 17.9385 6.9961C17.8448 6.79434 17.8456 6.60937 17.875 6.39063C18.0188 6.08093 18.2551 5.97253 18.5854 5.98291Z" fill="black"/>
<path d="M5.46976 4.73018C5.51862 4.72981 5.51862 4.72981 5.56847 4.72944C5.67733 4.72881 5.78616 4.72931 5.89502 4.7298C5.97318 4.72959 6.05135 4.72931 6.12951 4.72897C6.34161 4.72826 6.55369 4.72853 6.76579 4.72903C6.98777 4.72942 7.20975 4.72906 7.43173 4.72881C7.80451 4.72853 8.17728 4.7289 8.55005 4.72965C8.98101 4.7305 9.41195 4.73022 9.84291 4.72936C10.2129 4.72865 10.583 4.72855 10.953 4.72896C11.174 4.7292 11.395 4.72924 11.616 4.72872C11.8237 4.72827 12.0315 4.72858 12.2393 4.72948C12.3155 4.72969 12.3918 4.72963 12.468 4.72929C12.5721 4.72886 12.6761 4.7294 12.7802 4.73018C12.8255 4.72965 12.8255 4.72965 12.8716 4.72912C13.074 4.73205 13.1874 4.77956 13.3438 4.90627C13.4855 5.05546 13.5121 5.17513 13.5195 5.37502C13.5121 5.57491 13.4855 5.69457 13.3438 5.84377C13.1585 5.99387 13.0122 6.02254 12.7802 6.01986C12.7314 6.02022 12.7314 6.02022 12.6815 6.0206C12.5727 6.02122 12.4638 6.02073 12.355 6.02023C12.2768 6.02045 12.1987 6.02072 12.1205 6.02106C11.9084 6.02178 11.6963 6.0215 11.4842 6.021C11.2622 6.02061 11.0402 6.02098 10.8183 6.02122C10.4455 6.02151 10.0727 6.02113 9.69995 6.02039C9.26899 6.01954 8.83805 6.01981 8.40709 6.02067C8.03706 6.02138 7.66703 6.02148 7.297 6.02107C7.07601 6.02083 6.85502 6.0208 6.63402 6.02131C6.42625 6.02176 6.2185 6.02145 6.01073 6.02055C5.93449 6.02034 5.85824 6.0204 5.78199 6.02075C5.6779 6.02117 5.57385 6.02064 5.46976 6.01986C5.42451 6.02038 5.42451 6.02038 5.37835 6.02091C5.17604 6.01798 5.06262 5.97047 4.90625 5.84377C4.76452 5.69457 4.73789 5.57491 4.73047 5.37502C4.73789 5.17513 4.76452 5.05546 4.90625 4.90627C5.09149 4.75616 5.23776 4.72749 5.46976 4.73018Z" fill="black"/>
<path d="M5.66553 7.22979C5.71906 7.22958 5.77259 7.2293 5.82613 7.22896C5.97108 7.22825 6.11602 7.22853 6.26097 7.22902C6.41288 7.22942 6.56479 7.22905 6.71671 7.2288C6.97178 7.22852 7.22686 7.22889 7.48193 7.22964C7.77656 7.23049 8.07118 7.23021 8.36581 7.22935C8.61907 7.22864 8.87232 7.22854 9.12558 7.22895C9.27671 7.2292 9.42784 7.22923 9.57897 7.22871C9.72108 7.22826 9.86316 7.22858 10.0053 7.22948C10.0821 7.22978 10.1589 7.22932 10.2358 7.22883C10.6553 7.23285 10.6553 7.23285 10.8438 7.40626C10.9855 7.55545 11.0121 7.67512 11.0195 7.87501C11.0121 8.0749 10.9855 8.19457 10.8438 8.34376C10.619 8.5505 10.3776 8.52208 10.0845 8.52023C10.0309 8.52044 9.97741 8.52072 9.92387 8.52106C9.77892 8.52177 9.63398 8.52149 9.48903 8.521C9.33712 8.5206 9.18521 8.52097 9.03329 8.52121C8.77822 8.5215 8.52314 8.52112 8.26807 8.52038C7.97344 8.51953 7.67882 8.51981 7.38419 8.52067C7.13093 8.52138 6.87768 8.52147 6.62442 8.52107C6.47329 8.52082 6.32216 8.52079 6.17103 8.52131C6.02892 8.52176 5.88684 8.52144 5.74473 8.52054C5.6679 8.52024 5.59107 8.5207 5.51424 8.52119C5.09474 8.51717 5.09474 8.51717 4.90625 8.34376C4.76452 8.19457 4.73789 8.0749 4.73047 7.87501C4.73789 7.67512 4.76452 7.55545 4.90625 7.40626C5.13097 7.19951 5.37241 7.22793 5.66553 7.22979Z" fill="black"/>
</svg>
