<svg width="15" height="17" viewBox="0 0 15 17" fill="none" xmlns="http://www.w3.org/2000/svg">
<path d="M1.56249 4.62109H13.5625C13.699 4.62109 13.8296 4.67676 13.9238 4.77539C14.0183 4.87402 14.0681 5.00732 14.062 5.14355L13.6094 15.1958C13.5696 15.9951 12.9114 16.6211 12.1113 16.6211H3.01366C2.21337 16.6211 1.55517 15.9951 1.51562 15.1934L1.06298 5.14355C1.05663 5.00732 1.10693 4.87402 1.20117 4.77539C1.29541 4.67675 1.42577 4.62109 1.56249 4.62109ZM2.51464 15.146C2.52782 15.4126 2.74706 15.6211 3.01366 15.6211H12.1113C12.3779 15.6211 12.5974 15.4126 12.6106 15.1484L13.0395 5.62109H2.08544L2.51464 15.146Z" fill="#FC674E"/>
<path d="M10.1963 13.6211C10.189 13.6211 10.1817 13.6211 10.1743 13.6206C9.89845 13.6089 9.68434 13.3755 9.6963 13.0996L9.93214 7.59962C9.94386 7.32374 10.1775 7.10938 10.4531 7.12159C10.729 7.13331 10.9431 7.36671 10.9312 7.64259L10.6953 13.1426C10.6839 13.4111 10.4624 13.6211 10.1963 13.6211Z" fill="#FC674E"/>
<path d="M4.95121 13.6205C4.94388 13.621 4.93656 13.621 4.92923 13.621C4.66312 13.621 4.44193 13.4111 4.43021 13.1425L4.19388 7.64251C4.18216 7.36663 4.39603 7.13324 4.6719 7.12152C4.94388 7.11029 5.18069 7.32367 5.1929 7.59954L5.42923 13.0995C5.44095 13.3754 5.22709 13.6088 4.95121 13.6205Z" fill="#FC674E"/>
<path d="M1.0625 2.62109H4.0625V2.12109C4.0625 1.29394 4.73535 0.621094 5.5625 0.621094H9.5625C10.3896 0.621094 11.0625 1.29394 11.0625 2.12109V2.62109H14.0625C14.3386 2.62109 14.5625 2.84473 14.5625 3.12109C14.5625 3.39746 14.3386 3.62109 14.0625 3.62109H10.5625H4.5625H1.0625C0.786135 3.62109 0.5625 3.39746 0.5625 3.12109C0.5625 2.84473 0.786135 2.62109 1.0625 2.62109ZM10.0625 2.62109V2.12109C10.0625 1.84521 9.83813 1.62109 9.5625 1.62109H5.5625C5.28662 1.62109 5.0625 1.84521 5.0625 2.12109V2.62109H10.0625Z" fill="#FC674E"/>
<path d="M7.5625 13.6211C7.28637 13.6211 7.0625 13.3975 7.0625 13.1211V7.62109C7.0625 7.34473 7.28637 7.12109 7.5625 7.12109C7.83863 7.12109 8.0625 7.34473 8.0625 7.62109V13.1211C8.0625 13.3975 7.83863 13.6211 7.5625 13.6211Z" fill="#FC674E"/>
</svg>
