<svg width="13" height="13" viewBox="0 0 13 13" fill="none" xmlns="http://www.w3.org/2000/svg">
<path d="M9.87046 0.69633C9.59203 0.758834 9.32497 0.869637 9.09484 1.02306C8.93858 1.12533 8.02091 2.03164 5.20822 4.84717L1.52617 8.53774L1.16535 10.2282C0.969315 11.1572 0.807373 11.9755 0.807373 12.0465C0.807373 12.2965 0.989203 12.4727 1.25058 12.4727C1.45514 12.4727 4.69115 11.7737 4.79911 11.7056C4.92696 11.6232 12.1234 4.40964 12.22 4.2619C12.3507 4.06587 12.4729 3.81301 12.5468 3.58004C12.6036 3.39537 12.6121 3.31013 12.6121 2.92659C12.6121 2.54304 12.6036 2.45781 12.5468 2.27314C12.4076 1.82993 12.1519 1.4407 11.8138 1.15943C11.6206 0.997486 11.2115 0.787245 10.9643 0.7219C10.7256 0.656555 10.1063 0.642349 9.87046 0.69633ZM10.7086 1.63389C11.0183 1.71628 11.3137 1.93221 11.4956 2.21631C11.7541 2.62259 11.7513 3.23343 11.487 3.65107C11.4387 3.72778 11.166 4.02609 10.8819 4.31304L10.3676 4.83296L9.41588 3.87835L8.46412 2.92659L9.03233 2.36121C9.6176 1.78163 9.73977 1.69071 10.0324 1.62253C10.2057 1.58275 10.5267 1.58843 10.7086 1.63389ZM8.75675 4.55453L9.69999 5.49778L7.00664 8.19113L4.31612 10.8816L3.11434 11.1402C2.45237 11.2822 1.90688 11.393 1.89835 11.3845C1.89267 11.3788 2.00063 10.839 2.13985 10.1856L2.39554 8.99516L5.0889 6.3018C6.56911 4.8216 7.78794 3.60845 7.79646 3.60845C7.80498 3.60845 8.23683 4.03461 8.75675 4.55453Z" fill="white"/>
</svg>
