<svg width="21" height="21" viewBox="0 0 21 21" fill="none" xmlns="http://www.w3.org/2000/svg">
<path d="M7.34668 1.78614C3.80762 2.04004 2.13964 3.72754 1.88964 7.30957C1.83887 8.02051 1.83887 13.4346 1.88964 14.1455C2.10449 17.2393 3.38574 18.915 5.95605 19.4736C6.90527 19.6768 7.01074 19.6846 10.3662 19.7002C13.6631 19.7197 14.4678 19.6963 15.2725 19.5596C17.1631 19.2314 18.3818 18.4268 19.0849 17.04C19.2647 16.6807 19.5147 15.9541 19.6006 15.5322C19.7803 14.6455 19.792 14.4541 19.8076 11.6455L19.8233 8.9502L19.7334 8.77832C19.6084 8.53614 19.4756 8.4502 19.2061 8.43066C19.0147 8.41895 18.9561 8.43066 18.8428 8.50879C18.7686 8.55957 18.667 8.66114 18.6201 8.73145C18.5342 8.86036 18.5303 8.8877 18.5303 9.87594V10.8838L18.2099 10.6377C17.6826 10.2393 17.2724 10.0986 16.6162 10.0986C16.1553 10.0986 15.8272 10.1768 15.4248 10.3877C15.2763 10.4697 14.5263 11.0869 13.3349 12.1104C12.2686 13.0284 11.4053 13.7393 11.3037 13.79C11.1709 13.8486 11.0498 13.8721 10.8154 13.8721C10.4326 13.8721 10.2724 13.8018 9.87792 13.4619C9.57325 13.2002 9.17484 12.9854 8.82324 12.8955C8.51855 12.8174 7.85059 12.8174 7.54199 12.8994C7.15918 12.9971 6.88184 13.165 5.09277 14.3682C3.44043 15.4814 3.39355 15.5127 3.36621 15.415C3.2998 15.1963 3.21777 14.6221 3.17871 14.1259C3.12793 13.4384 3.12793 8.01661 3.17871 7.32911C3.36621 4.83691 4.29199 3.63379 6.34277 3.21191C7.01464 3.0752 7.31934 3.05957 9.6045 3.03614L11.9092 3.0127L12.042 2.91895C12.1904 2.81348 12.3154 2.56739 12.3193 2.38379C12.3193 2.18457 12.1631 1.93457 11.9678 1.83301L11.7998 1.74316L9.78417 1.74707C8.6748 1.75098 7.58105 1.76661 7.34668 1.78614ZM17.0537 11.4541C17.1904 11.5009 17.3974 11.6534 17.8818 12.0674L18.5303 12.6221V13.1104C18.5303 14.5244 18.3428 15.6025 17.9638 16.3799C17.3545 17.6259 16.2451 18.2236 14.2568 18.3838C13.5967 18.4346 8.07324 18.4346 7.41309 18.3838C5.7998 18.2549 4.74512 17.8174 4.10059 17.0166C3.91309 16.7822 3.90918 16.7744 3.98339 16.708C4.02246 16.6689 4.88574 16.083 5.89355 15.4072C7.59277 14.2705 7.74902 14.1729 7.96387 14.1338C8.38574 14.0596 8.69824 14.1572 9.06934 14.4814C9.58109 14.9307 10.0654 15.1377 10.6787 15.1689C11.1553 15.1924 11.5342 15.1182 11.9483 14.9111C12.2138 14.7784 12.5498 14.5049 14.1436 13.1338C16.0693 11.4814 16.1201 11.4424 16.499 11.3799C16.6279 11.3564 16.8311 11.3838 17.0537 11.4541Z" fill="#640164"/>
<path d="M15.6201 1.78615C15.4756 1.82912 13.6631 3.626 13.5849 3.80177C13.417 4.18459 13.6514 4.61818 14.0654 4.69631C14.3115 4.74318 14.4873 4.65334 14.8623 4.29397L15.2099 3.95802V5.79006C15.2099 7.53615 15.2139 7.62599 15.2881 7.73537C15.5381 8.11818 16.1123 8.12209 16.374 7.74318C16.4599 7.61818 16.4599 7.61818 16.4599 5.78615V3.95802L16.8076 4.29397C17.0694 4.54787 17.1944 4.63772 17.3233 4.67287C17.8428 4.8135 18.2842 4.32912 18.1006 3.82522C18.0772 3.76662 17.6319 3.29006 17.1123 2.76662C16.0537 1.70802 15.999 1.67287 15.6201 1.78615Z" fill="#640164"/>
<path d="M7.69042 5.17689C7.15136 5.33314 6.62792 5.73158 6.34667 6.21204C6.15527 6.53236 6.03027 6.99329 6.03027 7.3722C6.03027 7.78627 6.08496 8.03236 6.27246 8.41517C6.53417 8.96986 7.01465 9.38389 7.63183 9.59873C7.96777 9.71206 8.62792 9.72373 8.97949 9.61831C9.58887 9.43864 10.1318 8.97767 10.3975 8.41517C10.585 8.03236 10.6396 7.78627 10.6396 7.3722C10.6396 6.99329 10.5146 6.53236 10.3232 6.21204C10.0342 5.71986 9.48337 5.30579 8.93652 5.16517C8.6123 5.08314 7.99902 5.08704 7.69042 5.17689ZM8.74902 6.46595C9.20996 6.67689 9.45604 7.22767 9.29587 7.70814C9.0459 8.45814 8.05762 8.64954 7.55762 8.04408C7.12402 7.52064 7.32324 6.72377 7.95215 6.45033C8.13964 6.36829 8.55371 6.38002 8.74902 6.46595Z" fill="#640164"/>
</svg>
