<svg width="23" height="21" viewBox="0 0 23 21" fill="none" xmlns="http://www.w3.org/2000/svg">
<path d="M12.8817 19.7276C12.8817 19.9723 13.0799 20.1701 13.3242 20.1701H19.9975C20.2418 20.1701 20.44 19.9724 20.44 19.7276V10.9955C20.44 10.7508 20.2418 10.553 19.9975 10.553C19.7533 10.553 19.555 10.7508 19.555 10.9955V19.2852H13.7666V14.6671C13.7666 14.4225 13.5684 14.2246 13.3241 14.2246H8.9826C8.73835 14.2246 8.54011 14.4224 8.54011 14.6671V19.3848H2.67747V10.3995C2.67747 10.1548 2.47922 9.95703 2.23497 9.95703C1.99073 9.95703 1.79248 10.1548 1.79248 10.3995V19.8272C1.79248 20.0719 1.99073 20.2697 2.23497 20.2697H8.98265C9.2269 20.2697 9.42515 20.0719 9.42515 19.8272V15.1096H12.8817V19.7276Z" fill="black"/>
<path d="M21.9524 9.06181L11.3561 0.477911C11.1955 0.347379 10.9663 0.345637 10.8039 0.474373L0.285023 8.76095C0.0929799 8.91228 0.0598296 9.19016 0.211156 9.38221C0.362482 9.57381 0.641238 9.6074 0.83241 9.45564L11.0733 1.3881L21.3952 9.74904C21.4771 9.81496 21.5757 9.84772 21.6736 9.84772C21.8023 9.84772 21.9302 9.79155 22.0174 9.68399C22.1714 9.49412 22.1422 9.21537 21.9524 9.06181Z" fill="black"/>
</svg>
