<svg width="21" height="21" viewBox="0 0 21 21" fill="none" xmlns="http://www.w3.org/2000/svg">
<g clip-path="url(#clip0_1171_8245)">
<path d="M9.40227 1.55779C5.94626 2.14005 3.44066 5.05136 3.42188 8.50736C3.42188 9.09338 3.45944 9.43898 3.59843 10.0288C3.80128 10.8928 4.13186 11.6967 4.62772 12.5344C4.92824 13.0415 9.6502 20.1902 9.81549 20.3818C10.1987 20.8363 10.8598 20.8363 11.243 20.3818C11.4083 20.1902 16.1265 13.049 16.4307 12.5381C17.043 11.5013 17.43 10.442 17.5915 9.35258C17.6554 8.94312 17.6441 8.04531 17.5727 7.57199C17.3398 6.01303 16.6749 4.68697 15.5705 3.57504C14.4886 2.48189 13.1738 1.80572 11.6299 1.55779C11.0288 1.46012 9.98077 1.46012 9.40227 1.55779ZM11.3594 2.40676C12.7719 2.6021 14.0266 3.24071 15.007 4.25497C15.9424 5.22791 16.4908 6.3436 16.7125 7.71849C16.7876 8.19557 16.7688 9.11968 16.6712 9.55919C16.4796 10.4345 16.1528 11.2609 15.6719 12.0761C15.2362 12.8086 10.5818 19.8333 10.5292 19.8333C10.4766 19.8333 5.8223 12.8086 5.38654 12.0761C4.9057 11.2609 4.57889 10.4345 4.3873 9.55919C4.28963 9.11968 4.27085 8.19557 4.34598 7.71849C4.68407 5.60357 5.91245 3.92064 7.81701 2.97024C8.85006 2.45184 10.1836 2.24147 11.3594 2.40676Z" fill="#640164" stroke="#640164" stroke-width="0.3"/>
<path d="M9.78192 4.8812C9.26728 4.99765 8.84654 5.16669 8.50094 5.3996C7.47541 6.0908 6.88564 7.05623 6.7767 8.22451C6.58511 10.3206 8.03889 12.0937 10.1501 12.3379C11.4874 12.4957 12.8848 11.8458 13.6587 10.7076C14.4626 9.52427 14.5151 7.9052 13.7864 6.67682C13.2905 5.83535 12.5204 5.23807 11.5625 4.95257C11.2695 4.86617 11.1418 4.85114 10.6234 4.83987C10.1951 4.82861 9.95472 4.84363 9.78192 4.8812ZM11.3747 5.81657C12.1673 6.07577 12.7608 6.58666 13.1215 7.32294C13.3656 7.83007 13.437 8.1644 13.4145 8.72788C13.3995 9.06597 13.3732 9.23126 13.2943 9.46416C12.8811 10.6888 11.7954 11.4777 10.5295 11.4777C9.26352 11.4777 8.17788 10.6888 7.76466 9.46416C7.62943 9.05846 7.59938 8.42736 7.68953 7.99536C7.77218 7.61595 8.06894 7.01115 8.30185 6.73692C8.74136 6.22603 9.29357 5.8917 9.94721 5.74144C10.3078 5.6588 11.0028 5.69261 11.3747 5.81657Z" fill="#640164" stroke="#640164" stroke-width="0.3"/>
</g>
<defs>
<clipPath id="clip0_1171_8245">
<rect width="20" height="20" fill="white" transform="translate(0.248047 0.722656)"/>
</clipPath>
</defs>
</svg>
