<?xml version="1.0" encoding="UTF-8"?>
<svg version="1.1" xmlns="http://www.w3.org/2000/svg" width="512" height="512">
<path d="M0 0 C0.72832031 0.65742188 1.45664063 1.31484375 2.20703125 1.9921875 C2.92503906 2.62898438 3.64304688 3.26578125 4.3828125 3.921875 C9.46385975 8.68715095 12.95534077 13.85462172 16.20703125 19.9921875 C16.80515625 21.0853125 17.40328125 22.1784375 18.01953125 23.3046875 C21.77235484 34.95819235 20.26080481 48.62669471 20.0859375 60.73046875 C20.06158409 62.70728451 20.03774333 64.68410664 20.01438904 66.66093445 C19.95206679 71.82131305 19.88285809 76.98157633 19.81213379 82.1418457 C19.7409768 87.42458927 19.67644499 92.70741351 19.61132812 97.99023438 C19.48298602 108.32430745 19.34735662 118.65827068 19.20703125 128.9921875 C19.82786591 128.82425186 20.44870056 128.65631622 21.08834839 128.48329163 C102.72716561 106.42886709 182.12719335 90.87079476 267.14453125 96.8046875 C268.12075439 96.86245361 269.09697754 96.92021973 270.1027832 96.97973633 C270.9918335 97.05216553 271.88088379 97.12459473 272.796875 97.19921875 C273.55863037 97.2556958 274.32038574 97.31217285 275.10522461 97.37036133 C278.16749156 98.27634273 279.2657228 99.43939333 281.20703125 101.9921875 C281.5912884 104.97594913 281.73408046 107.5871832 281.69287109 110.56860352 C281.69666779 111.43243652 281.70046448 112.29626953 281.70437622 113.1862793 C281.71178215 116.03992082 281.6904005 118.89254282 281.66796875 121.74609375 C281.66558445 123.7285907 281.66467897 125.71108994 281.66519165 127.69358826 C281.66206367 131.84722042 281.64549719 136.0005074 281.61865234 140.15405273 C281.58465045 145.48298453 281.57702439 150.81153735 281.57854271 156.14056492 C281.57799937 160.23345062 281.56703838 164.32625318 281.55253983 168.41911125 C281.54616805 170.38434151 281.54223204 172.34958121 281.54075241 174.31482124 C281.5364247 177.05843344 281.5189358 179.8016406 281.49755859 182.54516602 C281.49846497 183.36031174 281.49937134 184.17545746 281.50030518 185.01530457 C281.45638812 188.86232448 281.39120623 190.71592503 279.20703125 193.9921875 C276.87011719 194.3203125 276.87011719 194.3203125 273.94140625 194.2421875 C272.3162207 194.20158203 272.3162207 194.20158203 270.65820312 194.16015625 C264.91477397 193.8806232 259.18907073 193.44380041 253.45703125 192.9921875 C174.29016828 187.33776339 98.07605339 204.73264336 22.25009727 225.36019611 C8.43490656 229.11708357 -5.39661417 232.70294419 -19.35546875 235.8828125 C-20.59699707 236.16815857 -21.83852539 236.45350464 -23.11767578 236.74749756 C-74.66889037 248.26683117 -131.32459335 241.47989779 -176.72607422 213.49169922 C-183.08662712 209.41478485 -189.05825995 204.90359652 -194.79296875 199.9921875 C-195.63601562 199.27160156 -196.4790625 198.55101562 -197.34765625 197.80859375 C-209.54537603 187.11241699 -225.72268418 170.09340523 -226.94001389 152.917449 C-226.95036289 152.11465039 -226.9607119 151.31185179 -226.97137451 150.48472595 C-226.98549881 149.56108246 -226.99962311 148.63743896 -227.01417542 147.68580627 C-227.02464401 146.67437057 -227.03511261 145.66293488 -227.04589844 144.62084961 C-227.06061691 143.55382812 -227.07533539 142.48680664 -227.09049988 141.38745117 C-227.13749914 137.8481893 -227.1768258 134.30890039 -227.21484375 130.76953125 C-227.22870369 129.56014956 -227.24256363 128.35076786 -227.25684357 127.10473824 C-227.33014304 120.70016262 -227.39768359 114.29555636 -227.46044922 107.89086914 C-227.52623584 101.28564869 -227.61086891 94.68081388 -227.70002365 88.07587337 C-227.76529985 82.98945343 -227.81669124 77.90295976 -227.86435699 72.81634712 C-227.88953788 70.38235185 -227.91986871 67.94840402 -227.95552826 65.51453972 C-228.00422427 62.09942186 -228.03322171 58.68465358 -228.05761719 55.26928711 C-228.07618271 54.27202103 -228.09474823 53.27475494 -228.11387634 52.24726868 C-228.16315498 35.90682279 -220.41645636 23.22943857 -209.48291016 11.68652344 C-160.95526043 -36.96731781 -52.9209514 -45.11006471 0 0 Z M-148.79296875 -11.0078125 C-149.47117676 -10.81993164 -150.14938477 -10.63205078 -150.84814453 -10.43847656 C-167.66878181 -5.6325802 -183.09277012 2.16285277 -196.79296875 12.9921875 C-197.55867188 13.57484375 -198.324375 14.1575 -199.11328125 14.7578125 C-208.94544896 22.70066171 -217.309096 34.27909564 -219.07080078 46.99804688 C-220.73697287 64.98769441 -213.23581786 79.8949817 -201.96875 93.49609375 C-186.1146772 111.68415932 -165.77998823 123.55483668 -143.79296875 132.9921875 C-143.13296875 132.9921875 -142.47296875 132.9921875 -141.79296875 132.9921875 C-141.78932312 131.85736938 -141.78567749 130.72255127 -141.78192139 129.55334473 C-141.74492972 118.84231279 -141.68711123 108.13156724 -141.60906601 97.42075348 C-141.56960992 91.91460503 -141.53741214 86.40861607 -141.52197266 80.90234375 C-141.50679397 75.58533452 -141.47232638 70.26876381 -141.42465973 64.95195007 C-141.40985852 62.92668984 -141.40192846 60.901367 -141.4010849 58.87605286 C-141.39870973 56.03213115 -141.3715856 53.18941588 -141.33886719 50.34570312 C-141.34641273 49.09844452 -141.34641273 49.09844452 -141.35411072 47.82598877 C-141.21629189 40.04887662 -138.23669704 33.5791718 -132.79296875 27.9921875 C-127.34443903 23.29978027 -121.52550385 20.2177514 -114.85546875 17.6796875 C-113.90849121 17.31629272 -113.90849121 17.31629272 -112.94238281 16.94555664 C-103.26711616 13.47241543 -93.57274606 12.64821098 -83.35546875 12.6796875 C-82.31326172 12.66357422 -81.27105469 12.64746094 -80.19726562 12.63085938 C-70.36099326 12.62476125 -61.13581087 14.33857935 -52.35546875 18.9296875 C-51.40800781 19.41308594 -50.46054688 19.89648438 -49.484375 20.39453125 C-43.38503485 24.01518454 -39.07933203 28.13309767 -36.79296875 34.9921875 C-36.68002129 36.38798023 -36.61707688 37.78818659 -36.58764648 39.18823242 C-36.56770126 40.02887741 -36.54775604 40.8695224 -36.52720642 41.73564148 C-36.50213768 43.09046379 -36.50213768 43.09046379 -36.4765625 44.47265625 C-36.4557814 45.40064529 -36.43500031 46.32863434 -36.41358948 47.28474426 C-36.34819552 50.2496499 -36.28925613 53.21464422 -36.23046875 56.1796875 C-36.18727388 58.1894623 -36.14365928 60.19922813 -36.09960938 62.20898438 C-35.99252448 67.13662782 -35.8912283 72.06436049 -35.79296875 76.9921875 C-19.00931482 72.05442451 -2.60143348 65.6556028 7.0859375 50.1328125 C10.80105055 43.03914717 11.45680321 36.14094864 9.5546875 28.3046875 C3.25503939 11.00093305 -12.41867604 1.12867886 -28.1328125 -6.6640625 C-65.71457748 -23.85432139 -109.79568943 -21.84728543 -148.79296875 -11.0078125 Z M-123.79296875 31.9921875 C-124.74171875 32.6315625 -125.69046875 33.2709375 -126.66796875 33.9296875 C-130.74573371 37.8875182 -133.00028722 41.7138814 -133.35546875 47.3671875 C-132.98819681 54.33350695 -129.37140594 59.77219681 -124.48046875 64.5546875 C-108.57365123 77.41170166 -88.45014959 81.16880926 -68.54296875 81.1796875 C-66.79693359 81.19805664 -66.79693359 81.19805664 -65.015625 81.21679688 C-63.28892578 81.21969727 -63.28892578 81.21969727 -61.52734375 81.22265625 C-59.98385254 81.22881958 -59.98385254 81.22881958 -58.40917969 81.23510742 C-53.49116272 80.90473834 -48.64256271 79.87393186 -43.79296875 78.9921875 C-43.79296875 71.0721875 -43.79296875 63.1521875 -43.79296875 54.9921875 C-45.66984375 55.6315625 -47.54671875 56.2709375 -49.48046875 56.9296875 C-64.6740219 62.1055133 -78.70279859 60.44942637 -93.79296875 55.9921875 C-95.11296875 55.6621875 -96.43296875 55.3321875 -97.79296875 54.9921875 C-98.28796875 59.9421875 -98.28796875 59.9421875 -98.79296875 64.9921875 C-103.54296875 66.1171875 -103.54296875 66.1171875 -105.79296875 64.9921875 C-105.82185021 61.67970563 -105.83972674 58.36725583 -105.85546875 55.0546875 C-105.86384766 54.10916016 -105.87222656 53.16363281 -105.88085938 52.18945312 C-105.88569336 50.84077148 -105.88569336 50.84077148 -105.890625 49.46484375 C-105.89848022 48.21586304 -105.89848022 48.21586304 -105.90649414 46.94165039 C-105.79296875 44.9921875 -105.79296875 44.9921875 -104.79296875 43.9921875 C-99.99496834 44.20543196 -96.26615093 45.53700236 -91.85546875 47.4296875 C-79.78991008 52.57726247 -66.53117814 54.41212674 -53.8515625 49.921875 C-50.49407237 48.40558913 -47.42023541 46.61945416 -44.79296875 43.9921875 C-44.23125197 40.55167221 -44.19598653 38.05530653 -45.93359375 34.9609375 C-52.46912025 26.71221473 -62.52112337 22.3606121 -72.79296875 20.9921875 C-73.67082031 20.85941406 -74.54867187 20.72664063 -75.453125 20.58984375 C-92.29262972 18.57272946 -109.80572599 22.37923227 -123.79296875 31.9921875 Z M5.01953125 65.9921875 C-15.84761672 84.81991166 -46.98138768 90.97338342 -74.37353516 89.89013672 C-96.41834436 88.60021468 -115.0332545 82.31197318 -132.79296875 68.9921875 C-132.79296875 91.4321875 -132.79296875 113.8721875 -132.79296875 136.9921875 C-109.17368172 143.15537683 -109.17368172 143.15537683 -85.79296875 144.9921875 C-85.46296875 133.4421875 -85.13296875 121.8921875 -84.79296875 109.9921875 C-82.81296875 109.9921875 -80.83296875 109.9921875 -78.79296875 109.9921875 C-76.78793366 111.99722259 -77.53708212 115.99244194 -77.4765625 118.74609375 C-77.4557814 119.52154037 -77.43500031 120.296987 -77.41358948 121.09593201 C-77.34801073 123.58209058 -77.28917076 126.06835795 -77.23046875 128.5546875 C-77.18729142 130.23633954 -77.14367739 131.91798044 -77.09960938 133.59960938 C-76.99232096 137.73035621 -76.89107743 141.86121286 -76.79296875 145.9921875 C-62.5543747 146.37676884 -48.88865205 145.01662483 -34.79296875 142.9921875 C-34.75538452 141.46295654 -34.75538452 141.46295654 -34.71704102 139.90283203 C-34.62299871 136.12698396 -34.52277038 132.35132123 -34.4206543 128.57568359 C-34.37729337 126.94031097 -34.33561914 125.30489273 -34.2956543 123.66943359 C-34.23797963 121.32114909 -34.17427746 118.97309446 -34.109375 116.625 C-34.09266251 115.89161407 -34.07595001 115.15822815 -34.05873108 114.40261841 C-33.90684046 109.21993091 -33.90684046 109.21993091 -32.79296875 106.9921875 C-31.1268497 106.9494665 -29.4591399 106.95154918 -27.79296875 106.9921875 C-25.8419879 108.94316835 -26.53881767 112.63893679 -26.4765625 115.30859375 C-26.4557814 116.03964828 -26.43500031 116.77070282 -26.41358948 117.52391052 C-26.34801851 119.86740406 -26.28917443 122.21101289 -26.23046875 124.5546875 C-26.18729067 126.13998605 -26.14367662 127.72527279 -26.09960938 129.31054688 C-25.99232955 133.20430787 -25.89108385 137.09818522 -25.79296875 140.9921875 C-21.66667753 140.06031305 -17.54219575 139.12065191 -13.41796875 138.1796875 C-12.26167969 137.91865234 -11.10539062 137.65761719 -9.9140625 137.38867188 C-8.77324219 137.12763672 -7.63242188 136.86660156 -6.45703125 136.59765625 C-5.4201416 136.36199951 -4.38325195 136.12634277 -3.31494141 135.88354492 C1.23195472 134.73279504 5.71458196 133.33992229 10.20703125 131.9921875 C10.20703125 108.8921875 10.20703125 85.7921875 10.20703125 61.9921875 C8.19949331 61.9921875 6.34414936 64.71294783 5.01953125 65.9921875 Z M-217.79296875 87.9921875 C-217.93302114 96.22521441 -218.03911454 104.45772995 -218.10384178 112.69165993 C-218.13493425 116.51655272 -218.17699033 120.34062078 -218.24560547 124.16503906 C-218.31160349 127.86746493 -218.34684001 131.56910621 -218.36223221 135.27207565 C-218.37317683 136.67291975 -218.39454207 138.07372907 -218.42734909 139.47423172 C-218.73975338 153.38505566 -214.65386253 165.08203164 -205.79296875 175.9921875 C-205.46296875 175.9921875 -205.13296875 175.9921875 -204.79296875 175.9921875 C-204.46296875 163.4521875 -204.13296875 150.9121875 -203.79296875 137.9921875 C-201.48296875 137.9921875 -199.17296875 137.9921875 -196.79296875 137.9921875 C-196.81081673 138.87969193 -196.81081673 138.87969193 -196.82902527 139.78512573 C-196.94271527 145.9833664 -196.97829126 152.17867822 -196.9699707 158.37792969 C-196.97691597 160.6863418 -197.00330597 162.99478511 -197.05004883 165.30273438 C-197.93920003 178.56135541 -197.93920003 178.56135541 -193.57836914 190.57421875 C-190.78951142 193.16059077 -188.06991282 195.07409477 -184.79296875 196.9921875 C-183.25828918 198.11596244 -181.72790258 199.24563844 -180.203125 200.3828125 C-178.76153654 201.34743936 -177.31227968 202.30070772 -175.85546875 203.2421875 C-175.08984619 203.74524414 -174.32422363 204.24830078 -173.53540039 204.76660156 C-164.19674446 211.52119337 -164.19674446 211.52119337 -153.79296875 214.9921875 C-153.75538452 213.13702515 -153.75538452 213.13702515 -153.71704102 211.24438477 C-153.62314622 206.67282037 -153.52288246 202.10141432 -153.4206543 197.5300293 C-153.37723731 195.54829604 -153.33556738 193.56652372 -153.2956543 191.5847168 C-153.23811492 188.7425558 -153.1743743 185.90059267 -153.109375 183.05859375 C-153.09266251 182.16693008 -153.07595001 181.27526642 -153.05873108 180.35658264 C-152.90684046 174.10605921 -152.90684046 174.10605921 -151.79296875 172.9921875 C-149.29296875 172.8671875 -149.29296875 172.8671875 -146.79296875 172.9921875 C-145.23638393 174.54877232 -145.62987476 176.07086486 -145.58764648 178.23657227 C-145.56770126 179.13743057 -145.54775604 180.03828888 -145.52720642 180.96644592 C-145.51049393 181.94560471 -145.49378143 182.92476349 -145.4765625 183.93359375 C-145.44539085 185.42970436 -145.44539085 185.42970436 -145.41358948 186.95603943 C-145.34798238 190.15551593 -145.28915741 193.35507732 -145.23046875 196.5546875 C-145.18729413 198.71810789 -145.1436802 200.88151956 -145.09960938 203.04492188 C-144.99228972 208.36058624 -144.89054448 213.67633584 -144.79296875 218.9921875 C-143.21751674 219.63117227 -141.64116788 220.26794605 -140.06445312 220.90380859 C-139.18672241 221.25865326 -138.3089917 221.61349792 -137.40466309 221.97909546 C-133.75446605 223.39502898 -130.0547712 224.5400563 -126.29296875 225.6171875 C-125.56174805 225.82883545 -124.83052734 226.0404834 -124.07714844 226.25854492 C-116.95942249 228.2853166 -110.22647734 229.9921875 -102.79296875 229.9921875 C-102.46296875 215.8021875 -102.13296875 201.6121875 -101.79296875 186.9921875 C-96.79296875 185.9921875 -96.79296875 185.9921875 -94.79296875 185.9921875 C-94.46296875 201.1721875 -94.13296875 216.3521875 -93.79296875 231.9921875 C-85.78657035 232.82995895 -85.78657035 232.82995895 -77.84765625 233.125 C-76.83316406 233.12628906 -75.81867188 233.12757813 -74.7734375 233.12890625 C-73.23623047 233.12310547 -73.23623047 233.12310547 -71.66796875 233.1171875 C-70.63542969 233.12105469 -69.60289062 233.12492188 -68.5390625 233.12890625 C-67.52714844 233.12761719 -66.51523438 233.12632812 -65.47265625 233.125 C-64.57272949 233.12387207 -63.67280273 233.12274414 -62.74560547 233.12158203 C-59.07888733 232.96089404 -55.43486412 232.44742442 -51.79296875 231.9921875 C-51.79296875 216.8121875 -51.79296875 201.6321875 -51.79296875 185.9921875 C-49.15296875 185.9921875 -46.51296875 185.9921875 -43.79296875 185.9921875 C-43.79296875 200.8421875 -43.79296875 215.6921875 -43.79296875 230.9921875 C-33.19238944 229.55803731 -33.19238944 229.55803731 -22.80859375 227.51953125 C-21.6896875 227.25978516 -20.57078125 227.00003906 -19.41796875 226.73242188 C-18.30421875 226.46751953 -17.19046875 226.20261719 -16.04296875 225.9296875 C-14.8828125 225.66091797 -13.72265625 225.39214844 -12.52734375 225.11523438 C-7.01747778 223.96805917 -7.01747778 223.96805917 -1.79296875 221.9921875 C-1.75538452 220.05400146 -1.75538452 220.05400146 -1.71704102 218.07666016 C-1.62305251 213.29449094 -1.52281109 208.51246988 -1.4206543 203.73046875 C-1.37727298 201.65856384 -1.33560029 199.58662243 -1.2956543 197.51464844 C-1.2380291 194.54090359 -1.1743125 191.56734302 -1.109375 188.59375 C-1.09266251 187.66350006 -1.07595001 186.73325012 -1.05873108 185.77481079 C-1.03878586 184.91406952 -1.01884064 184.05332825 -0.99829102 183.16650391 C-0.98274673 182.40705475 -0.96720245 181.64760559 -0.95118713 180.86514282 C-0.79296875 178.9921875 -0.79296875 178.9921875 0.20703125 176.9921875 C2.18703125 176.9921875 4.16703125 176.9921875 6.20703125 176.9921875 C6.53703125 190.8521875 6.86703125 204.7121875 7.20703125 218.9921875 C12.79030801 218.2942779 17.81676132 217.45160715 23.171875 215.9609375 C23.89065323 215.76495972 24.60943146 215.56898193 25.34999084 215.36706543 C26.85229617 214.95616802 28.3538751 214.5426061 29.85473633 214.12646484 C32.16109596 213.48759905 34.46995154 212.85844648 36.77929688 212.23046875 C38.24364465 211.82868972 39.70784308 211.42636592 41.171875 211.0234375 C41.863452 210.83487183 42.55502899 210.64630615 43.26756287 210.45202637 C46.50466425 209.73573335 46.50466425 209.73573335 49.20703125 207.9921875 C49.32900933 206.61167892 49.38472024 205.22521103 49.41235352 203.83959961 C49.43229874 202.95876205 49.45224396 202.0779245 49.47279358 201.1703949 C49.48950607 200.21310989 49.50621857 199.25582489 49.5234375 198.26953125 C49.55460915 196.80671471 49.55460915 196.80671471 49.58641052 195.31434631 C49.65201537 192.1862012 49.71084153 189.05796928 49.76953125 185.9296875 C49.81270608 183.814444 49.85632002 181.69920941 49.90039062 179.58398438 C50.0077078 174.38681163 50.10945345 169.18955173 50.20703125 163.9921875 C52.51703125 163.9921875 54.82703125 163.9921875 57.20703125 163.9921875 C57.53703125 177.8521875 57.86703125 191.7121875 58.20703125 205.9921875 C73.21038019 202.66338563 73.21038019 202.66338563 88.20703125 199.3046875 C89.15835937 199.09263672 90.1096875 198.88058594 91.08984375 198.66210938 C92.44722656 198.35563477 92.44722656 198.35563477 93.83203125 198.04296875 C94.62867188 197.86419189 95.4253125 197.68541504 96.24609375 197.5012207 C98.26574594 197.04955265 98.26574594 197.04955265 100.20703125 195.9921875 C100.2320874 194.69482666 100.25714355 193.39746582 100.28295898 192.06079102 C100.37684877 187.26559894 100.47711374 182.470558 100.5793457 177.67553711 C100.62276459 175.59679693 100.66443437 173.51801947 100.7043457 171.43920898 C100.76188046 168.45805605 100.82562244 165.47709201 100.890625 162.49609375 C100.90733749 161.56068253 100.92404999 160.6252713 100.94126892 159.66151428 C100.96121414 158.80069748 100.98115936 157.93988068 101.00170898 157.05297852 C101.02502541 155.91047386 101.02502541 155.91047386 101.04881287 154.74488831 C101.20703125 152.9921875 101.20703125 152.9921875 102.20703125 151.9921875 C104.70703125 151.8671875 104.70703125 151.8671875 107.20703125 151.9921875 C109.36160094 154.14675719 108.46729751 159.0633502 108.5234375 162.05859375 C108.5442186 162.96721664 108.56499969 163.87583954 108.58641052 164.81199646 C108.65200797 167.72614696 108.71083805 170.64039054 108.76953125 173.5546875 C108.81270679 175.52540041 108.85632076 177.49610376 108.90039062 179.46679688 C109.00769968 184.30849738 109.108938 189.15029187 109.20703125 193.9921875 C118.28284529 192.71756636 127.3443161 191.37486454 136.39453125 189.9296875 C137.49861328 189.75630859 138.60269531 189.58292969 139.74023438 189.40429688 C140.79533203 189.23607422 141.85042969 189.06785156 142.9375 188.89453125 C143.88004639 188.74491943 144.82259277 188.59530762 145.79370117 188.44116211 C148.33705873 188.02516617 148.33705873 188.02516617 151.20703125 186.9921875 C151.20703125 172.1421875 151.20703125 157.2921875 151.20703125 141.9921875 C153.51703125 141.9921875 155.82703125 141.9921875 158.20703125 141.9921875 C159.33722552 144.25257604 159.35972082 145.56337576 159.41235352 148.07470703 C159.44262634 149.35341675 159.44262634 149.35341675 159.47351074 150.65795898 C159.48998657 151.55458252 159.5064624 152.45120605 159.5234375 153.375 C159.54208862 154.19863037 159.56073975 155.02226074 159.57995605 155.87084961 C159.64834744 158.95285124 159.70843629 162.03503259 159.76953125 165.1171875 C159.91390625 172.0059375 160.05828125 178.8946875 160.20703125 185.9921875 C174.06703125 185.0021875 187.92703125 184.0121875 202.20703125 182.9921875 C202.53703125 168.1421875 202.86703125 153.2921875 203.20703125 137.9921875 C204.85703125 137.6621875 206.50703125 137.3321875 208.20703125 136.9921875 C209.76361607 138.54877232 209.37012524 140.07086486 209.41235352 142.23657227 C209.43229874 143.13743057 209.45224396 144.03828888 209.47279358 144.96644592 C209.49786232 146.4351841 209.49786232 146.4351841 209.5234375 147.93359375 C209.5442186 148.93100082 209.56499969 149.9284079 209.58641052 150.95603943 C209.65201762 154.15551593 209.71084259 157.35507732 209.76953125 160.5546875 C209.81270587 162.71810789 209.8563198 164.88151956 209.90039062 167.04492188 C210.00854052 172.36059119 210.10753076 177.67632097 210.20703125 182.9921875 C221.09703125 182.9921875 231.98703125 182.9921875 243.20703125 182.9921875 C243.20703125 157.2521875 243.20703125 131.5121875 243.20703125 104.9921875 C227.22665062 103.85073174 211.72292302 103.87686442 195.76953125 104.7421875 C194.97533783 104.78508911 194.18114441 104.82799072 193.36288452 104.87219238 C135.04364003 108.11331703 78.64136883 122.29566674 22.44140625 137.4140625 C-22.40845158 149.47300255 -22.40845158 149.47300255 -38.79296875 151.9921875 C-39.98019531 152.1782959 -39.98019531 152.1782959 -41.19140625 152.36816406 C-91.43180526 159.85832322 -146.33329971 148.5059195 -187.51953125 118.296875 C-198.29111336 110.17354276 -207.6676494 101.19545961 -215.33203125 90.01171875 C-215.81414062 89.34527344 -216.29625 88.67882812 -216.79296875 87.9921875 C-217.12296875 87.9921875 -217.45296875 87.9921875 -217.79296875 87.9921875 Z M252.20703125 104.9921875 C252.20703125 130.7321875 252.20703125 156.4721875 252.20703125 182.9921875 C257.90303375 185.84018875 264.84969621 184.61822662 271.20703125 184.9921875 C271.20703125 159.2521875 271.20703125 133.5121875 271.20703125 106.9921875 C264.93703125 106.3321875 258.66703125 105.6721875 252.20703125 104.9921875 Z " fill="#000000" transform="translate(229.79296875,149.0078125)"/>
</svg>
