<svg width="21" height="21" viewBox="0 0 21 21" fill="none" xmlns="http://www.w3.org/2000/svg">
<g clip-path="url(#clip0_1023_1552)">
<path d="M10.9385 -0.044776C10.8564 0.00994587 10.7783 0.115481 10.7313 0.224926C10.6649 0.389092 10.661 0.42818 10.704 0.576712C10.7939 0.869866 10.9385 0.971493 11.431 1.07312C13.9365 1.59298 16.0316 2.98449 17.513 5.12256C18.2283 6.15056 18.7091 7.31145 19.0139 8.74595C19.0843 9.0782 19.1781 9.23064 19.3696 9.30881C19.6589 9.42998 19.9716 9.33617 20.1279 9.0821C20.2256 8.92185 20.2256 8.80458 20.1279 8.32381C19.5533 5.51734 17.8804 3.06657 15.4375 1.46008C14.386 0.76433 13.1626 0.248378 11.8922 -0.0369587C11.3372 -0.162038 11.1144 -0.162038 10.9385 -0.044776Z" fill="#640164"/>
<path d="M3.55439 1.07151C2.98762 1.22786 2.74528 1.41548 1.6313 2.57246C0.72447 3.51446 0.552486 3.7529 0.372685 4.28839C0.317963 4.44865 0.255423 4.71053 0.228062 4.87079C0.17334 5.22258 0.204609 6.12158 0.286693 6.56718C0.591574 8.22448 1.57657 10.3508 2.88991 12.1918C4.5902 14.5762 6.67355 16.5188 9.04224 17.9377C11.8839 19.638 14.3737 20.2634 15.8982 19.6536C16.375 19.4621 16.6643 19.2275 17.6297 18.2504C18.8336 17.0269 18.9743 16.7963 18.9743 16.0263C18.9704 15.5768 18.8961 15.3149 18.6577 14.9514C18.5795 14.8341 17.8916 14.111 17.1216 13.3449C15.8903 12.1176 15.6988 11.9417 15.4565 11.8166C15.0109 11.5899 14.577 11.5352 14.1275 11.6485C13.6663 11.7697 13.4747 11.9104 12.6109 12.7625L11.794 13.5638L11.4383 13.3723C9.67937 12.4303 7.39667 10.1241 6.57974 8.45119L6.47812 8.24402L7.21687 7.50527C7.62337 7.09486 8.02988 6.65317 8.11587 6.52028C8.34258 6.18021 8.44812 5.84016 8.44812 5.46101C8.44812 5.08577 8.3973 4.89034 8.21359 4.53464C8.09242 4.2923 7.90871 4.09686 6.64619 2.83043C5.09443 1.27867 4.97717 1.18095 4.4534 1.05978C4.12506 0.981606 3.871 0.985516 3.55439 1.07151ZM4.37522 2.29103C4.44949 2.32621 5.11397 2.96333 5.84881 3.70208C7.07615 4.93333 7.1856 5.05841 7.24032 5.23821C7.36149 5.65645 7.23641 5.84016 6.14588 6.8916C5.27814 7.72807 5.2156 7.82188 5.24687 8.20885C5.2625 8.4121 5.30941 8.5489 5.50484 8.94759C6.0247 9.99904 6.79082 11.0036 7.98689 12.1957C9.00706 13.2159 10.0233 13.9781 11.067 14.5175C11.5595 14.7716 11.622 14.7951 11.8409 14.7951C12.0051 14.7951 12.1301 14.7677 12.2435 14.713C12.3373 14.6622 12.7829 14.2596 13.3067 13.7436C14.0415 13.0166 14.2369 12.8485 14.3659 12.8094C14.7842 12.6882 14.8467 12.7352 16.3633 14.2596C17.7118 15.612 17.8212 15.7449 17.8212 16.0458C17.8212 16.3195 17.6923 16.4953 16.8558 17.3475C15.9646 18.2543 15.8591 18.3559 15.5855 18.4927C14.8702 18.8562 13.6819 18.7507 12.2122 18.1917C9.77318 17.2615 7.15042 15.4048 5.29377 13.298C4.05862 11.8909 3.16743 10.5854 2.45995 9.14694C1.3655 6.91897 1.0958 5.25776 1.67038 4.30012C1.78764 4.10468 3.49185 2.38093 3.65211 2.29885C3.90227 2.16204 4.12115 2.16204 4.37522 2.29103Z" fill="#640164"/>
<path d="M10.9424 3.49906C10.7704 3.54205 10.5632 3.76485 10.528 3.94856C10.4616 4.31207 10.6883 4.5935 11.1222 4.67167C12.9944 5.01564 14.6439 6.48923 15.2341 8.34588C15.2967 8.54913 15.3631 8.79538 15.3788 8.88919C15.4491 9.30743 15.6524 9.52631 15.9729 9.53022C16.3442 9.53413 16.5709 9.31133 16.5709 8.94391C16.5709 8.68594 16.3833 7.96282 16.1996 7.5055C15.4218 5.58241 13.7136 4.08537 11.7358 3.60068C11.2355 3.47951 11.1065 3.45997 10.9424 3.49906Z" fill="#640164"/>
</g>
<defs>
<clipPath id="clip0_1023_1552">
<rect width="20" height="20" fill="white" transform="translate(0.247559 0.108398)"/>
</clipPath>
</defs>
</svg>
