<svg width="22" height="22" viewBox="0 0 22 22" fill="none" xmlns="http://www.w3.org/2000/svg">
<path d="M10.9878 0.98783C11.0445 0.987937 11.0445 0.987937 11.1023 0.988046C11.6622 0.98982 12.2069 1.0097 12.7578 1.11722C12.8104 1.12666 12.8104 1.12666 12.864 1.13628C14.7659 1.48042 16.5246 2.39617 17.9141 3.73441C17.9527 3.77145 17.9527 3.77145 17.9921 3.80924C18.3628 4.16644 18.7042 4.52962 19.0078 4.94535C19.0413 4.99031 19.0749 5.03527 19.1084 5.08024C19.3442 5.40014 19.5545 5.73228 19.75 6.07816C19.7657 6.10579 19.7814 6.13341 19.7976 6.16188C20.3061 7.06498 20.6472 8.04737 20.856 9.06156C20.8617 9.08932 20.8675 9.11707 20.8734 9.14567C20.9901 9.75669 21.0146 10.3675 21.0122 10.9878C21.0121 11.0445 21.0121 11.0445 21.012 11.1023C21.0102 11.6622 20.9903 12.207 20.8828 12.7578C20.8765 12.7929 20.8702 12.8279 20.8638 12.864C20.5196 14.7659 19.6039 16.5246 18.2656 17.9141C18.2409 17.9399 18.2162 17.9656 18.1908 17.9921C17.8336 18.3628 17.4704 18.7042 17.0547 19.0078C17.0097 19.0414 16.9648 19.0749 16.9198 19.1084C16.5999 19.3442 16.2678 19.5545 15.9219 19.75C15.8943 19.7657 15.8666 19.7815 15.8382 19.7976C14.9351 20.3061 13.9527 20.6472 12.9385 20.856C12.9107 20.8617 12.883 20.8675 12.8544 20.8734C12.2433 20.9901 11.6326 21.0147 11.0122 21.0122C10.9744 21.0122 10.9366 21.0121 10.8977 21.012C10.3378 21.0103 9.79306 20.9904 9.24219 20.8828C9.20715 20.8766 9.17211 20.8703 9.13601 20.8638C7.23415 20.5197 5.47539 19.6039 4.08594 18.2657C4.06019 18.241 4.03443 18.2163 4.0079 18.1908C3.63726 17.8336 3.29586 17.4705 2.99219 17.0547C2.95868 17.0098 2.92516 16.9648 2.89164 16.9198C2.6558 16.5999 2.44553 16.2678 2.25001 15.9219C2.2343 15.8943 2.21859 15.8667 2.2024 15.8382C1.69394 14.9351 1.3528 13.9527 1.14405 12.9385C1.13542 12.8969 1.13542 12.8969 1.12661 12.8544C1.00995 12.2434 0.985365 11.6326 0.987799 11.0122C0.987871 10.9745 0.987942 10.9367 0.988015 10.8977C0.98979 10.3379 1.00967 9.79309 1.11719 9.24222C1.12663 9.18966 1.12663 9.18966 1.13625 9.13604C1.48039 7.23418 2.39614 5.47543 3.73438 4.08597C3.75907 4.06022 3.78377 4.03446 3.80921 4.00793C4.16641 3.63729 4.52959 3.29589 4.94532 2.99222C4.99028 2.95871 5.03524 2.92519 5.08021 2.89167C5.40011 2.65583 5.73225 2.44556 6.07813 2.25004C6.10576 2.23433 6.13338 2.21862 6.16185 2.20243C7.06495 1.69397 8.04734 1.35283 9.06153 1.14408C9.10316 1.13545 9.10316 1.13545 9.14563 1.12664C9.75666 1.00998 10.3675 0.985396 10.9878 0.98783ZM9.16407 2.36722C9.13111 2.37433 9.09814 2.38144 9.06418 2.38876C7.13157 2.81759 5.29291 3.95424 4.08594 5.53129C4.06914 5.55313 4.05233 5.57497 4.03502 5.59747C3.76435 5.95113 3.52415 6.3158 3.30469 6.70316C3.29136 6.72629 3.27803 6.74942 3.2643 6.77326C2.76726 7.64009 2.44857 8.60949 2.28907 9.59379C2.27864 9.65626 2.27864 9.65626 2.26799 9.72C2.20448 10.139 2.1954 10.5525 2.1963 10.9756C2.1963 11.0117 2.19631 11.0478 2.19632 11.0849C2.19765 11.6697 2.23702 12.225 2.36719 12.7969C2.37472 12.8316 2.38224 12.8662 2.38999 12.9019C2.70197 14.3234 3.36897 15.5775 4.28126 16.7032C4.3665 16.6713 4.3665 16.6713 4.39074 16.586C4.40603 16.5349 4.40603 16.5349 4.42164 16.4827C4.43347 16.4445 4.4453 16.4063 4.4575 16.367C4.47023 16.3256 4.48297 16.2843 4.4961 16.2417C4.7002 15.6061 4.97843 15.0155 5.37501 14.4766C5.41942 14.4156 5.41942 14.4156 5.46473 14.3533C6.25328 13.2889 7.30262 12.4946 8.53907 12.0157C8.53907 11.977 8.53907 11.9383 8.53907 11.8985C8.46403 11.8268 8.46403 11.8268 8.36573 11.7569C8.01119 11.4823 7.73295 11.1778 7.48438 10.8047C7.46107 10.7699 7.43775 10.7351 7.41373 10.6993C6.84261 9.78728 6.66452 8.64129 6.88624 7.59183C7.04359 6.91704 7.338 6.28672 7.79688 5.76566C7.82327 5.73369 7.84965 5.70171 7.87684 5.66877C8.50517 4.92921 9.48293 4.40847 10.4531 4.32035C11.6664 4.26816 12.732 4.46651 13.6953 5.25785C13.7286 5.28469 13.7619 5.31153 13.7962 5.33918C14.4678 5.90924 14.9136 6.70633 15.1016 7.56254C15.1087 7.59498 15.1159 7.62742 15.1233 7.66085C15.3387 8.72668 15.1179 9.83542 14.5582 10.7603C14.261 11.2065 13.8752 11.6454 13.4219 11.9375C13.4841 12.0619 13.6135 12.085 13.7368 12.1353C15.3602 12.8242 16.6545 14.1306 17.3343 15.7594C17.4498 16.056 17.5451 16.3605 17.6406 16.6641C17.7557 16.6775 17.7557 16.6775 17.8109 16.6143C17.8288 16.591 17.8468 16.5676 17.8652 16.5436C17.8856 16.5172 17.9059 16.4909 17.9269 16.4637C17.9484 16.4348 17.97 16.4058 17.9922 16.376C18.0146 16.3462 18.0371 16.3163 18.0602 16.2856C18.4339 15.7806 18.7422 15.2405 19.0078 14.6719C19.0197 14.6469 19.0316 14.6218 19.0438 14.596C19.3374 13.9724 19.5358 13.3156 19.6719 12.6407C19.6778 12.6135 19.6837 12.5864 19.6898 12.5584C19.9168 11.481 19.8703 10.2346 19.6328 9.1641C19.6257 9.13114 19.6186 9.09817 19.6113 9.06421C19.1825 7.1316 18.0458 5.29294 16.4688 4.08597C16.4469 4.06917 16.4251 4.05236 16.4026 4.03505C16.0489 3.76438 15.6842 3.52418 15.2969 3.30472C15.2737 3.29139 15.2506 3.27806 15.2268 3.26433C14.36 2.7673 13.3906 2.44858 12.4063 2.2891C12.3437 2.27867 12.3437 2.27867 12.28 2.26802C11.8618 2.20467 11.4492 2.19543 11.0269 2.19633C10.9729 2.19634 10.9729 2.19634 10.9178 2.19635C10.3205 2.19772 9.74899 2.23744 9.16407 2.36722ZM8.66953 6.54752C8.11682 7.25248 7.8964 8.09251 8.00267 8.9779C8.0993 9.55768 8.37845 10.0996 8.77344 10.5313C8.79651 10.5579 8.81957 10.5846 8.84333 10.612C9.34538 11.1579 10.0998 11.4738 10.8322 11.5162C11.6813 11.5445 12.4147 11.262 13.0593 10.7145C13.6405 10.1683 13.9971 9.40586 14.0236 8.60821C14.0345 7.76377 13.739 6.98201 13.1593 6.35892C12.5173 5.74228 11.7538 5.46517 10.8767 5.47392C10.0128 5.50003 9.23072 5.89113 8.66953 6.54752ZM9.78907 12.875C9.74863 12.8826 9.7082 12.8901 9.66654 12.8979C8.62493 13.1216 7.73594 13.7147 6.97657 14.4375C6.95134 14.4607 6.92611 14.4839 6.90012 14.5077C6.05253 15.3097 5.49624 16.5352 5.36051 17.6854C5.36473 17.8015 5.36473 17.8015 5.45008 17.8789C5.48654 17.9042 5.52299 17.9295 5.56055 17.9556C5.58104 17.97 5.60152 17.9844 5.62263 17.9992C5.6957 18.05 5.76967 18.0992 5.84376 18.1485C5.87285 18.1682 5.90195 18.1879 5.93193 18.2083C7.44685 19.234 9.13869 19.8078 10.9756 19.8037C11.0117 19.8037 11.0478 19.8037 11.085 19.8037C11.6695 19.8021 12.2256 19.7657 12.7969 19.6328C12.8549 19.6197 12.8549 19.6197 12.914 19.6062C13.3966 19.4943 13.8629 19.3542 14.3203 19.1641C14.3457 19.1538 14.3711 19.1435 14.3972 19.1329C14.9999 18.887 15.5534 18.5681 16.0864 18.1957C16.1559 18.1487 16.2267 18.1053 16.2985 18.0621C16.5265 17.9228 16.5265 17.9228 16.6534 17.6996C16.6485 17.5675 16.6211 17.4558 16.5859 17.3282C16.5703 17.2647 16.5546 17.2012 16.5389 17.1377C16.3052 16.2315 15.9012 15.4257 15.2969 14.711C15.2544 14.6602 15.2544 14.6602 15.2111 14.6084C14.2887 13.5377 12.866 12.8735 11.4688 12.7578C10.8979 12.7249 10.3486 12.7604 9.78907 12.875Z" fill="black"/>
</svg>
