<svg width="19" height="19" viewBox="0 0 19 19" fill="none" xmlns="http://www.w3.org/2000/svg">
<path d="M8.8284 3.22155V4.32194L8.40301 4.39928C6.38504 4.77194 4.65184 6.11491 3.77293 7.99225C3.32645 8.94499 3.14012 9.87663 3.17879 10.963C3.22801 12.3973 3.71317 13.6911 4.60965 14.795C4.90496 15.1571 5.49559 15.709 5.87528 15.9798C6.25848 16.2505 7.05301 16.6583 7.49598 16.813C9.51746 17.509 11.8167 17.1399 13.5112 15.8462C13.8276 15.6036 14.3233 15.1219 14.5905 14.795C16.1901 12.8438 16.4925 10.0419 15.3464 7.81647C15.1143 7.36295 14.9526 7.10631 14.9139 7.12038C14.8401 7.14499 13.6835 7.94303 13.68 7.96413C13.68 7.97819 13.7573 8.12584 13.8522 8.29459C14.2917 9.05748 14.4921 9.82038 14.4921 10.7309C14.4886 11.5325 14.3339 12.2005 13.9753 12.9141C13.121 14.6192 11.3456 15.6774 9.44363 15.6106C8.47684 15.5755 7.67176 15.3188 6.86668 14.7809C5.76278 14.0391 4.99988 12.8579 4.76785 11.5114C4.70106 11.1387 4.70106 10.3512 4.76434 9.95749C5.08426 7.98522 6.54324 6.42077 8.49442 5.94967C8.6491 5.91452 8.78621 5.88288 8.80379 5.88288C8.81785 5.88288 8.8284 6.39616 8.8284 7.02545C8.8284 7.65475 8.83543 8.16803 8.84598 8.16803C8.88113 8.16803 12.6077 5.17272 12.6077 5.14459C12.6077 5.11647 8.88113 2.12116 8.84598 2.12116C8.83543 2.12116 8.8284 2.61686 8.8284 3.22155Z" fill="#2AAAE3"/>
</svg>
