<?xml version="1.0" encoding="UTF-8"?>
<svg version="1.1" xmlns="http://www.w3.org/2000/svg" width="512" height="512">
<path d="M0 0 C1.05021725 -0.00865438 2.1004345 -0.01730876 3.18247652 -0.02622539 C6.70742653 -0.04784493 10.23080364 -0.02650463 13.7557373 -0.00532532 C16.28035742 -0.01181716 18.80497205 -0.0208772 21.32957458 -0.03231812 C27.47831534 -0.05303125 33.62647144 -0.04566584 39.775195 -0.02481725 C44.77220638 -0.00853438 49.76909369 -0.00433337 54.76612854 -0.00878334 C55.47727531 -0.00941402 56.18842209 -0.01004469 56.92111877 -0.01069448 C58.36579147 -0.01204053 59.81046415 -0.0134201 61.25513679 -0.01483283 C74.80251193 -0.02677041 88.34963787 -0.00270166 101.89695626 0.03418525 C113.5216838 0.06507839 125.14612442 0.06744943 136.77087402 0.04838562 C150.26966659 0.026274 163.76829831 0.02012882 177.2670989 0.04070824 C178.70646252 0.04287119 180.14582616 0.04502028 181.58518982 0.04715538 C182.29338766 0.04822175 183.0015855 0.04928811 183.73124388 0.05038679 C188.72235328 0.05685678 193.71337993 0.05208988 198.70448303 0.04313087 C205.42199967 0.03149558 212.13894931 0.0466588 218.8564167 0.07987404 C221.32474488 0.08809719 223.79311814 0.08777872 226.26144218 0.07839584 C229.62529055 0.06701126 232.98759351 0.08628319 236.35131836 0.11352539 C237.33331727 0.1030539 238.31531617 0.09258241 239.32707262 0.08179361 C243.92853921 0.15144744 246.00557535 0.24380129 249.75843048 3.10777569 C252.87195372 7.40707092 252.8481661 11.16384287 252.87878418 16.27470398 C252.88448425 17.01089462 252.89018433 17.74708527 252.89605713 18.50558472 C252.90549674 20.06313139 252.91203699 21.62069793 252.91589355 23.17826843 C252.92558149 25.54866359 252.95660593 27.91818475 252.98815918 30.28837585 C252.99469159 31.80464677 252.99994113 33.32092386 253.00378418 34.83720398 C253.02230438 35.89219841 253.02230438 35.89219841 253.04119873 36.96850586 C253.02032265 41.63308381 252.17332488 44.81443567 249.67565918 48.75517273 C246.01247323 51.1972967 244.18771368 51.02761109 239.81750488 51.07402039 C239.12456329 51.08406601 238.4316217 51.09411163 237.71768188 51.10446167 C235.42894311 51.13533433 233.14032153 51.15233984 230.85144043 51.16923523 C229.2638803 51.18794363 227.67633014 51.2075168 226.08879089 51.22792053 C221.91150795 51.27928256 217.73419275 51.31888639 213.5567627 51.35606384 C209.29357905 51.39607804 205.03053004 51.44718215 200.76745605 51.49736023 C192.40361568 51.59416769 184.03970876 51.67855694 175.67565918 51.75517273 C176.00088562 52.24534378 176.32611206 52.73551483 176.66119385 53.24053955 C179.60023464 57.78481818 181.88516132 62.21245678 183.75378418 67.28251648 C184.01069031 67.95690262 184.26759644 68.63128876 184.5322876 69.32611084 C185.33812836 71.44535641 186.13245305 73.56866986 186.92565918 75.69267273 C187.73521068 77.84082051 188.54716854 79.9880193 189.36187744 82.13421631 C189.86505022 83.46171745 190.36488204 84.79049076 190.86102295 86.12063599 C191.86790502 89.1739095 191.86790502 89.1739095 193.67565918 91.75517273 C195.24465108 91.86745831 196.81856493 91.91192175 198.39147949 91.92875671 C199.39632385 91.94224655 200.40116821 91.95573639 201.4364624 91.96963501 C202.53117859 91.98007339 203.62589478 91.99051178 204.75378418 92.00126648 C207.05196496 92.0342126 209.35014195 92.06742412 211.64831543 92.10087585 C215.2867972 92.14826599 218.92526442 92.19266846 222.56384277 92.23197937 C226.06482472 92.27171459 229.56548143 92.32326732 233.06628418 92.37626648 C234.15290344 92.38468063 235.23952271 92.39309479 236.35906982 92.40176392 C237.37652283 92.41840591 238.39397583 92.43504791 239.44226074 92.45219421 C240.334151 92.46250168 241.22604126 92.47280914 242.1449585 92.48342896 C245.81754009 92.87778661 248.68325359 93.87676335 251.4588623 96.33354187 C253.27731587 99.95257094 253.14343162 103.53724404 253.14440918 107.50126648 C253.15202271 108.34939407 253.15963623 109.19752167 253.16748047 110.0713501 C253.17827055 111.8624935 253.181139 113.65369976 253.17663574 115.44487 C253.1756636 118.1802346 253.21728989 120.91279132 253.26159668 123.64775085 C253.26680416 125.39058356 253.26949187 127.13342599 253.26940918 128.87626648 C253.28580444 129.69098923 253.30219971 130.50571198 253.3190918 131.34512329 C253.27198468 135.23056851 252.90814763 137.35933571 250.90734863 140.76591492 C245.90655909 143.84413756 241.13953005 143.48182557 235.37487793 143.46220398 C234.18336624 143.47732529 232.99185455 143.49244659 231.76423645 143.50802612 C227.9636858 143.55096694 224.16392845 143.55974796 220.36315918 143.56767273 C217.78436195 143.59081184 215.20558366 143.61617594 212.62683105 143.6438446 C206.30976629 143.70676043 199.99301234 143.74164377 193.67565918 143.75517273 C193.42968994 144.9414325 193.1837207 146.12769226 192.93029785 147.34989929 C189.45982795 163.74323909 189.45982795 163.74323909 185.98815918 171.50517273 C185.47660278 172.67874329 185.47660278 172.67874329 184.95471191 173.87602234 C179.67009961 185.61920553 172.66728624 195.51929094 163.67565918 204.75517273 C162.90608887 205.58661804 162.13651855 206.41806335 161.34362793 207.27470398 C138.92512212 230.85216324 107.70511295 239.98196844 76.67565918 245.75517273 C76.67565918 248.46349735 77.62367742 249.06404063 79.42565918 251.06767273 C80.05987793 251.77536804 80.69409668 252.48306335 81.34753418 253.21220398 C84.64057211 256.80912964 87.9486639 260.39198244 91.26379395 263.96855164 C94.56243654 267.53160308 97.80172838 271.13549616 100.97644043 274.80986023 C102.96972346 277.09182563 105.01058945 279.32745847 107.05065918 281.56767273 C110.17988745 285.03047355 113.18066267 288.56196276 116.11315918 292.19267273 C119.18902506 295.99604776 122.36319084 299.65599925 125.67565918 303.25517273 C129.69171765 307.62286765 133.46951372 312.12366509 137.19519043 316.73954773 C140.12534407 320.30187625 143.14331885 323.77985234 146.17565918 327.25517273 C150.67091271 332.41077151 155.06189754 337.63028909 159.36706543 342.94657898 C162.0891029 346.25816094 164.87715877 349.50821154 167.67565918 352.75517273 C172.77535617 358.6762113 177.75552191 364.68370534 182.67565918 370.75517273 C186.98919111 376.06353725 191.31755958 381.35257041 195.76867676 386.54618835 C198.09205576 389.26506185 200.38881102 392.00553937 202.67565918 394.75517273 C203.12602539 395.29383972 203.5763916 395.83250671 204.04040527 396.38749695 C205.33437681 397.95228873 206.59931758 399.54094648 207.86315918 401.13017273 C208.96724121 402.50302429 208.96724121 402.50302429 210.09362793 403.90361023 C212.05781217 407.4439917 212.05574091 409.7619684 211.67565918 413.75517273 C209.97847409 417.57383917 208.54248534 419.2604319 204.67565918 420.75517273 C201.80532837 421.02259827 201.80532837 421.02259827 198.44177246 421.04570007 C197.18011261 421.05845978 195.91845276 421.07121948 194.61856079 421.08436584 C193.24436598 421.08742359 191.87016911 421.0896513 190.49597168 421.09111023 C189.08116522 421.09754055 187.66636009 421.10426909 186.2515564 421.11128235 C183.28758665 421.12324732 180.32373339 421.12696401 177.35974121 421.1257782 C173.571148 421.12557509 169.78330561 421.15287122 165.99489021 421.18732262 C163.07283126 421.20961666 160.15095226 421.21361499 157.22881699 421.21255875 C155.83262419 421.21491117 154.43642617 421.2237146 153.04031754 421.23922348 C151.08308912 421.25892948 149.12563953 421.25051111 147.16833496 421.24101257 C145.50098801 421.24528763 145.50098801 421.24528763 143.79995728 421.24964905 C138.62264921 420.43024701 134.89615501 417.39997352 131.56237793 413.47001648 C131.04159668 412.86286804 130.52081543 412.2557196 129.98425293 411.63017273 C129.44929199 410.99079773 128.91433105 410.35142273 128.36315918 409.69267273 C127.79339355 409.02364929 127.22362793 408.35462585 126.63659668 407.66532898 C122.71051242 403.0391078 118.86833007 398.34611912 115.05065918 393.63017273 C112.15070043 390.11969634 109.1680778 386.68684546 106.17565918 383.25517273 C102.44161475 378.97301169 98.75107272 374.67186005 95.17565918 370.25517273 C90.58013894 364.58428396 85.79585166 359.08767136 81.00378418 353.58329773 C77.85624232 349.96782862 74.73041985 346.33426055 71.61315918 342.69267273 C71.12444336 342.12218201 70.63572754 341.55169128 70.13220215 340.96391296 C67.60963616 338.01814513 65.09048955 335.06949653 62.57409668 332.11845398 C57.35333957 326.0020755 52.09102674 319.93836067 46.68737793 313.98173523 C44.82831249 311.92412882 42.9963756 309.8467051 41.17565918 307.75517273 C37.77950053 303.85587947 34.31664075 300.01888173 30.85144043 296.18095398 C29.00122355 294.11814485 27.17621109 292.03804903 25.36315918 289.94267273 C21.7341757 285.77481468 17.97736947 281.72918909 14.22155762 277.67607117 C10.42937934 273.58108639 6.67876546 269.45219746 2.96862793 265.28251648 C1.28772331 263.42979878 -0.41011884 261.618494 -2.14855957 259.82157898 C-2.63445557 259.31183533 -3.12035156 258.80209167 -3.62097168 258.27690125 C-4.98815784 256.84540934 -6.36681934 255.42490244 -7.74621582 254.00517273 C-8.62985547 252.94153864 -9.48805073 251.85642446 -10.32434082 250.75517273 C-11.02816895 249.82958557 -11.02816895 249.82958557 -11.74621582 248.88529968 C-16.74448453 240.87227266 -16.00997393 231.87076725 -15.86633301 222.75834656 C-15.82417745 219.93171812 -15.82529965 217.10745591 -15.83215332 214.28056335 C-15.82166875 212.47390623 -15.80873461 210.6672613 -15.79309082 208.86064148 C-15.7928894 208.0209935 -15.79268799 207.18134552 -15.79248047 206.31625366 C-15.69851581 201.6617026 -15.35897086 198.51763144 -12.32434082 194.75517273 C-8.14462638 191.96869643 -4.45692319 191.63704254 0.48400879 191.59745789 C1.41365952 191.58719574 2.34331024 191.57693359 3.3011322 191.56636047 C4.29999954 191.55905914 5.29886688 191.55175781 6.32800293 191.54423523 C8.49011913 191.51610937 10.65222838 191.48744474 12.81433105 191.45829773 C16.18566247 191.41753604 19.55687218 191.38062041 22.92834473 191.35380554 C51.52842056 191.10719818 81.06077336 189.48485736 103.67565918 169.75517273 C104.35241699 169.20732117 105.0291748 168.6594696 105.72644043 168.09501648 C113.06930764 161.60762895 117.60749342 151.95967 120.67565918 142.75517273 C119.67621214 142.75793811 119.67621214 142.75793811 118.65657425 142.76075935 C102.44879925 142.8049159 86.2410433 142.83801834 70.0332222 142.85879707 C62.19526256 142.86911243 54.35734306 142.88317771 46.51940918 142.90605164 C39.68837163 142.92597758 32.85736314 142.93888728 26.02629733 142.94334972 C22.40884475 142.94595845 18.79147532 142.95209547 15.17404938 142.96663284 C11.13711345 142.98272471 7.10032238 142.98315293 3.06335449 142.98222351 C1.86213959 142.98941406 0.66092468 142.99660461 -0.57669067 143.00401306 C-2.2256987 142.99988907 -2.2256987 142.99988907 -3.90802002 142.99568176 C-4.86299755 142.99752535 -5.81797508 142.99936893 -6.80189133 143.00126839 C-9.46221152 142.74172176 -11.06922695 142.16307065 -13.32434082 140.75517273 C-16.08977507 137.14853758 -15.63024407 132.79074276 -15.62512207 128.44657898 C-15.6294072 127.64284348 -15.63369232 126.83910797 -15.6381073 126.01101685 C-15.64384074 124.31401001 -15.64435812 122.61697861 -15.64001465 120.91996765 C-15.63685598 118.33010229 -15.66032051 115.74138122 -15.68566895 113.1516571 C-15.68794225 111.49996583 -15.68864529 109.8482715 -15.68762207 108.19657898 C-15.69683182 107.42560379 -15.70604156 106.6546286 -15.7155304 105.86029053 C-15.67667836 101.32264242 -15.24237058 98.29846511 -12.32434082 94.75517273 C-9.19619446 92.79786934 -6.79364341 92.50725916 -3.13580322 92.5146637 C-2.08694946 92.51191437 -1.0380957 92.50916504 0.0425415 92.5063324 C1.76020721 92.51711823 1.76020721 92.51711823 3.51257324 92.52812195 C5.32761353 92.52768387 5.32761353 92.52768387 7.17932129 92.52723694 C10.49312622 92.52839112 13.80668162 92.53841802 17.12044239 92.55238485 C20.58510922 92.56489169 24.04977941 92.56606267 27.51446533 92.56843567 C34.07340129 92.57465058 40.63227054 92.59106153 47.19117713 92.61113465 C54.65907487 92.63349332 62.12697581 92.644487 69.5948987 92.65452552 C84.95519082 92.67542776 100.3154164 92.71060393 115.67565918 92.75517273 C114.74392109 91.32862611 113.80824904 89.90464853 112.87097168 88.48173523 C112.35035156 87.68847839 111.82973145 86.89522156 111.29333496 86.07792664 C101.22358246 71.61918451 83.79130117 66.053634 67.17565918 63.00517273 C55.13078989 60.89976875 42.98872031 60.6933001 30.79284668 60.57939148 C29.06563385 60.56136978 29.06563385 60.56136978 27.30352783 60.54298401 C22.49331161 60.49428586 17.68337016 60.44680836 12.8729248 60.429245 C9.32498473 60.41382123 5.77802774 60.37371504 2.23034668 60.32939148 C1.14389862 60.3312999 0.05745056 60.33320831 -1.06192017 60.33517456 C-8.54115106 60.2133345 -8.54115106 60.2133345 -12.48400879 57.90678406 C-15.14664601 54.79378037 -15.45305857 52.24012151 -15.51721191 48.28715515 C-15.53327484 47.3857933 -15.54933777 46.48443146 -15.56588745 45.55575562 C-15.61046654 41.43888718 -15.65139469 37.32217734 -15.67443848 33.2051239 C-15.69099987 31.03541845 -15.71829215 28.8657676 -15.75646973 26.69633484 C-15.81129695 23.56331668 -15.83312093 20.43157506 -15.84777832 17.29814148 C-15.87044769 16.33232651 -15.89311707 15.36651154 -15.91647339 14.37142944 C-15.91362335 13.46061111 -15.91077332 12.54979279 -15.90783691 11.6113739 C-15.91592377 10.81656113 -15.92401062 10.02174835 -15.93234253 9.20285034 C-13.72667322 0.32332367 -7.9391216 -0.11372238 0 0 Z " fill="#000000" transform="translate(137.3243408203125,45.24482727050781)"/>
</svg>
